<svg width="32" height="32" viewBox="0 0 32 32" fill="none" xmlns="http://www.w3.org/2000/svg">
<g clip-path="url(#clip0_3243_69054)">
<path d="M22.364 0.0159988C22.296 -0.0600012 19.846 0.0459988 17.714 2.36C15.582 4.672 15.91 7.324 15.958 7.392C16.006 7.46 18.998 7.566 20.908 4.876C22.818 2.186 22.432 0.0939988 22.364 0.0159988ZM28.992 23.482C28.896 23.29 24.342 21.014 24.766 16.638C25.19 12.26 28.116 11.06 28.162 10.93C28.208 10.8 26.968 9.35 25.654 8.616C24.6892 8.0985 23.6215 7.80201 22.528 7.748C22.312 7.742 21.562 7.558 20.02 7.98C19.004 8.258 16.714 9.158 16.084 9.194C15.452 9.23 13.572 8.15 11.55 7.864C10.256 7.614 8.884 8.126 7.902 8.52C6.922 8.912 5.058 10.028 3.754 12.994C2.45 15.958 3.132 20.654 3.62 22.114C4.108 23.572 4.87 25.962 6.166 27.706C7.318 29.674 8.846 31.04 9.484 31.504C10.122 31.968 11.922 32.276 13.17 31.638C14.174 31.022 15.986 30.668 16.702 30.694C17.416 30.72 18.824 31.002 20.266 31.772C21.408 32.166 22.488 32.002 23.57 31.562C24.652 31.12 26.218 29.444 28.046 26.046C28.74 24.466 29.056 23.612 28.992 23.482Z" fill="black"/>
<path d="M22.364 0.0159988C22.296 -0.0600012 19.846 0.0459988 17.714 2.36C15.582 4.672 15.91 7.324 15.958 7.392C16.006 7.46 18.998 7.566 20.908 4.876C22.818 2.186 22.432 0.0939988 22.364 0.0159988ZM28.992 23.482C28.896 23.29 24.342 21.014 24.766 16.638C25.19 12.26 28.116 11.06 28.162 10.93C28.208 10.8 26.968 9.35 25.654 8.616C24.6892 8.0985 23.6215 7.80201 22.528 7.748C22.312 7.742 21.562 7.558 20.02 7.98C19.004 8.258 16.714 9.158 16.084 9.194C15.452 9.23 13.572 8.15 11.55 7.864C10.256 7.614 8.884 8.126 7.902 8.52C6.922 8.912 5.058 10.028 3.754 12.994C2.45 15.958 3.132 20.654 3.62 22.114C4.108 23.572 4.87 25.962 6.166 27.706C7.318 29.674 8.846 31.04 9.484 31.504C10.122 31.968 11.922 32.276 13.17 31.638C14.174 31.022 15.986 30.668 16.702 30.694C17.416 30.72 18.824 31.002 20.266 31.772C21.408 32.166 22.488 32.002 23.57 31.562C24.652 31.12 26.218 29.444 28.046 26.046C28.74 24.466 29.056 23.612 28.992 23.482Z" fill="black"/>
</g>
<defs>
<clipPath id="clip0_3243_69054">
<rect width="32" height="32" fill="white"/>
</clipPath>
</defs>
</svg>
