<svg width="380" height="162" viewBox="0 0 380 162" fill="none" xmlns="http://www.w3.org/2000/svg">
<path d="M188.567 156.684C189.197 158.715 188.609 160.931 187.354 161.32C186.099 161.709 184.902 161.162 184.272 159.13C183.642 157.098 184.134 156.056 185.39 155.667C186.645 155.278 187.937 154.652 188.567 156.684Z" fill="#0C63AA" fill-opacity="0.2"/>
<path d="M268.96 151.685C266.06 154.315 261.907 155.058 260.282 153.266C258.657 151.474 258.641 149.052 261.541 146.422C264.44 143.792 266.562 143.802 268.187 145.594C269.812 147.386 271.86 149.056 268.96 151.685Z" fill="#0C63AA" fill-opacity="0.2"/>
<path d="M126.771 147.694C122.75 151.34 115.77 151.023 112.198 147.085C108.627 143.147 107.62 138.703 111.641 135.057C115.662 131.41 119.384 132.286 122.956 136.224C126.527 140.162 130.792 144.048 126.771 147.694Z" fill="#0C63AA" fill-opacity="0.2"/>
<path d="M143.124 87.2333C143.753 89.265 143.166 91.4811 141.911 91.8702C140.655 92.2592 139.458 91.7114 138.829 89.6797C138.199 87.648 138.691 86.6054 139.946 86.2164C141.202 85.8273 142.494 85.2016 143.124 87.2333Z" fill="#0C63AA" fill-opacity="0.2"/>
<path d="M253.577 53.2648C253.138 47.7209 257.798 42.2565 263.261 41.8241C268.725 41.3916 272.984 43.3561 273.423 48.9C273.862 54.4439 270.801 56.9161 265.337 57.3486C259.874 57.781 254.016 58.8087 253.577 53.2648Z" fill="#0C63AA" fill-opacity="0.6"/>
<rect x="156" y="47" width="68" height="68" rx="34" fill="url(#paint0_linear_3252_71734)"/>
<mask id="mask0_3252_71734" style="mask-type:alpha" maskUnits="userSpaceOnUse" x="175" y="66" width="30" height="30">
<path fill-rule="evenodd" clip-rule="evenodd" d="M175 81C175 72.72 181.705 66 189.985 66C198.28 66 205 72.72 205 81C205 89.28 198.28 96 189.985 96C181.705 96 175 89.28 175 81ZM184.75 75.0003C183.507 75.0003 182.5 76.0077 182.5 77.2503C182.5 78.493 183.507 79.5003 184.75 79.5003C185.993 79.5003 187 78.493 187 77.2503C187 76.0077 185.993 75.0003 184.75 75.0003ZM195.25 75.0003C194.007 75.0003 193 76.0077 193 77.2503C193 78.493 194.007 79.5003 195.25 79.5003C196.493 79.5003 197.5 78.493 197.5 77.2503C197.5 76.0077 196.493 75.0003 195.25 75.0003ZM190 93.0002C183.37 93.0002 178 87.6302 178 81.0002C178 74.3702 183.37 69.0002 190 69.0002C196.63 69.0002 202 74.3702 202 81.0002C202 87.6302 196.63 93.0002 190 93.0002ZM183.025 87.8698C184.555 85.4548 187.15 83.9998 190 83.9998C192.85 83.9998 195.445 85.4398 196.99 87.8698C197.32 88.3948 197.155 89.0848 196.63 89.4148C196.435 89.5198 196.24 89.5798 196.03 89.5798C195.655 89.5798 195.28 89.3998 195.07 89.0548C193.96 87.2848 192.07 86.2348 190 86.2348C187.93 86.2348 186.04 87.2848 184.93 89.0548C184.6 89.5798 183.91 89.7448 183.385 89.4148C182.86 89.0848 182.695 88.3948 183.025 87.8698Z" fill="black"/>
</mask>
<g mask="url(#mask0_3252_71734)">
<rect x="172" y="63" width="36" height="36" fill="white"/>
</g>
<path d="M115.692 42.4168C114.585 43.5949 112.001 42.1715 110.661 40.8319C109.322 39.4923 107.627 36.8542 109.579 34.902C111.531 32.9499 114.144 35.6515 115.483 36.9912C116.823 38.3308 116.799 41.2386 115.692 42.4168Z" fill="#0C63AA" fill-opacity="0.5"/>
<path d="M169.834 19.0535C166.934 21.6833 162.78 22.4257 161.155 20.6339C159.53 18.8422 159.514 16.4198 162.414 13.79C165.314 11.1603 167.435 11.1704 169.06 12.9622C170.685 14.7539 172.734 16.4238 169.834 19.0535Z" fill="#0C63AA" fill-opacity="0.2"/>
<path d="M221.217 1.7588C221.74 3.70966 220.436 5.96871 218.514 6.48387C216.591 6.99903 214.94 6.5787 214.418 4.62785C213.895 2.67699 214.825 1.59202 216.748 1.07686C218.67 0.561705 220.694 -0.192052 221.217 1.7588Z" fill="#0C63AA" fill-opacity="0.1"/>
<defs>
<linearGradient id="paint0_linear_3252_71734" x1="224" y1="115.165" x2="156" y2="47.1652" gradientUnits="userSpaceOnUse">
<stop stop-color="#0C63AA"/>
<stop offset="1" stop-color="#4086F4"/>
</linearGradient>
</defs>
</svg>
