<svg width="32" height="32" viewBox="0 0 32 32" fill="none" xmlns="http://www.w3.org/2000/svg">
<g clip-path="url(#clip0_3243_69041)">
<path d="M16 32C24.8366 32 32 24.8366 32 16C32 7.16348 24.8366 3.05176e-05 16 3.05176e-05C7.16347 3.05176e-05 3.05176e-05 7.16348 3.05176e-05 16C3.05176e-05 24.8366 7.16347 32 16 32Z" fill="#3C5A9A"/>
<path d="M21.2024 4.91122H17.658C15.5547 4.91122 13.2152 5.79587 13.2152 8.84478C13.2254 9.90714 13.2152 10.9246 13.2152 12.0696H10.7818V15.9417H13.2905V27.0889H17.9001V15.8682H20.9427L21.218 12.0587H17.8207C17.8207 12.0587 17.8283 10.3642 17.8207 9.87204C17.8207 8.66718 19.0744 8.73617 19.1498 8.73617C19.7464 8.73617 20.9064 8.73791 21.2042 8.73617V4.91122H21.2024Z" fill="white"/>
</g>
<defs>
<clipPath id="clip0_3243_69041">
<rect width="32" height="32" fill="white"/>
</clipPath>
</defs>
</svg>
