<svg width="31" height="32" viewBox="0 0 31 32" fill="none" xmlns="http://www.w3.org/2000/svg">
<g clip-path="url(#clip0_3243_69046)">
<path d="M30.9837 16.2994C30.9837 14.9883 30.8782 14.0316 30.65 13.0395H15.8088V18.9568H24.5202C24.3447 20.4274 23.3962 22.6419 21.2886 24.1301L21.259 24.3282L25.9515 27.9951L26.2766 28.0278C29.2624 25.2463 30.9837 21.1537 30.9837 16.2994Z" fill="#4285F4"/>
<path d="M15.8088 31.8901C20.0767 31.8901 23.6596 30.4727 26.2766 28.0279L21.2886 24.1301C19.9538 25.0691 18.1622 25.7246 15.8088 25.7246C11.6287 25.7246 8.08089 22.9432 6.81619 19.0986L6.63082 19.1145L1.75148 22.9236L1.68767 23.1025C4.28704 28.3112 9.62637 31.8901 15.8088 31.8901Z" fill="#34A853"/>
<path d="M6.81636 19.0986C6.48266 18.1065 6.28953 17.0434 6.28953 15.945C6.28953 14.8465 6.48266 13.7836 6.7988 12.7914L6.78996 12.5801L1.84949 8.70985L1.68784 8.78741C0.616515 10.9489 0.00178528 13.3761 0.00178528 15.945C0.00178528 18.5139 0.616515 20.9411 1.68784 23.1025L6.81636 19.0986Z" fill="#FBBC05"/>
<path d="M15.8088 6.1654C18.777 6.1654 20.7792 7.45872 21.9208 8.53951L26.382 4.14574C23.6421 1.57682 20.0766 3.05176e-05 15.8088 3.05176e-05C9.62636 3.05176e-05 4.28704 3.57878 1.68767 8.78745L6.79863 12.7915C8.08088 8.94696 11.6287 6.1654 15.8088 6.1654Z" fill="#EB4335"/>
</g>
<defs>
<clipPath id="clip0_3243_69046">
<rect width="31" height="32" fill="white"/>
</clipPath>
</defs>
</svg>
