<svg width="331" height="250" viewBox="0 0 331 250" fill="none" xmlns="http://www.w3.org/2000/svg">
<g clip-path="url(#clip0_3387_7958)">
<path d="M117.709 231.513L125.408 233.3L135.971 204.485L124.61 201.848L117.709 231.513Z" fill="#FFB6B6"/>
<path d="M110.546 243.895L116.067 245.177L118.264 240.198L119.576 245.991L134.219 249.391C134.921 249.554 135.656 249.488 136.318 249.204C136.98 248.92 137.534 248.432 137.899 247.811C138.263 247.19 138.42 246.469 138.345 245.753C138.27 245.037 137.969 244.363 137.484 243.831L127.667 233.048L128.892 227.784L116.422 225.662L110.546 243.895Z" fill="#2F2E41"/>
<path d="M165.211 235.799H173.115L176.876 205.343H165.211V235.799Z" fill="#FFB6B6"/>
<path d="M161.04 249.479H166.707L167.719 244.133L170.31 249.479H185.343C186.064 249.48 186.765 249.249 187.346 248.823C187.926 248.396 188.355 247.795 188.57 247.108C188.784 246.421 188.773 245.683 188.538 245.003C188.303 244.322 187.856 243.734 187.263 243.325L175.259 235.043V229.638L162.632 230.391L161.04 249.479Z" fill="#2F2E41"/>
<path d="M0.521105 250H312.38C312.518 250 312.651 249.945 312.748 249.848C312.846 249.75 312.901 249.618 312.901 249.479C312.901 249.341 312.846 249.209 312.748 249.111C312.651 249.014 312.518 248.959 312.38 248.959H0.521105C0.3829 248.959 0.250357 249.014 0.152632 249.111C0.0549065 249.209 0 249.341 0 249.479C0 249.618 0.0549065 249.75 0.152632 249.848C0.250357 249.945 0.3829 250 0.521105 250Z" fill="#CCCCCC"/>
<path d="M215.795 102.588C215.072 102.692 214.334 102.636 213.635 102.425C212.935 102.214 212.291 101.853 211.746 101.366C211.202 100.879 210.771 100.279 210.484 99.6079C210.196 98.9367 210.06 98.2108 210.083 97.4813L193.503 91.1157L201.01 85.7507L215.604 92.6181C216.829 92.7394 217.966 93.3053 218.801 94.2086C219.635 95.1118 220.109 96.2896 220.133 97.5186C220.156 98.7477 219.727 99.9426 218.928 100.877C218.128 101.811 217.013 102.42 215.794 102.588L215.795 102.588Z" fill="#FFB7B7"/>
<path d="M206.32 98.0211L208.909 88.8982L208.782 88.8115L184.532 72.3546L163.569 51.3417L151.358 56.2156L152.16 60.0768L152.213 60.1241L180.083 85.0632L180.109 85.0758L206.32 98.0211Z" fill="#E6E7E8"/>
<path d="M181.478 118.859L143.948 113.604L147.251 90.5978H174.881L181.478 118.859Z" fill="#FFB6B6"/>
<path d="M143.474 109.7L180.176 106.783C191.007 132.058 184.12 172.407 175.797 217.828L163.992 219.353L163.076 146.367L133.483 214.266L121.179 213.637L143.474 109.7Z" fill="#2F2E41"/>
<path d="M145.192 97.3219L176.251 96.1411L177.987 75.842C179.326 72.1265 179.348 68.9339 178.052 66.3598C176.937 64.244 175.064 62.6265 172.807 61.8308L166.01 53.6303C165.136 52.5764 164.038 51.7296 162.796 51.1512C161.555 50.5727 160.2 50.2771 158.829 50.2857L141.17 50.4064C140.745 50.1508 138.163 48.8398 133.071 51.044C127.548 53.4353 128.83 61.7431 128.844 61.8265L128.857 61.9046L128.918 61.9578L140.663 71.8417L145.192 97.3219Z" fill="#E6E7E8"/>
<path d="M227.59 126.785C227.567 138.611 223.117 150 215.114 158.714C207.112 167.427 196.136 172.835 184.345 173.874C172.553 174.913 160.799 171.508 151.394 164.328C141.988 157.148 135.611 146.713 133.516 135.074C131.422 123.435 133.761 111.434 140.074 101.431C146.387 91.4277 156.218 84.1455 167.633 81.0161C179.048 77.8866 191.222 79.1363 201.761 84.5194C212.301 89.9026 220.444 99.0297 224.589 110.107C224.692 110.385 224.793 110.663 224.891 110.944V110.946C225.329 112.181 225.714 113.438 226.047 114.719C227.075 118.659 227.594 122.714 227.59 126.785Z" fill="#3F3D56"/>
<path d="M222.69 147.849C221.554 150.153 220.233 152.362 218.739 154.453C217.784 154.045 216.758 154.773 215.864 155.457C214.931 156.172 213.809 156.869 212.852 156.217C211.874 155.549 211.558 153.682 211.868 152.201C212.225 150.835 212.849 149.553 213.703 148.429C214.499 147.242 215.35 146.01 216.456 145.549C217.564 145.088 218.988 145.74 219.312 147.313L220.097 147.287C219.656 146.683 219.887 145.433 220.478 145.213C221.16 144.956 221.751 145.891 222.154 146.717C222.335 147.091 222.518 147.467 222.69 147.849Z" fill="#4086F4"/>
<path d="M193.09 145.053L193.093 145.058L193.137 144.973L193.09 145.053Z" fill="#4086F4"/>
<path d="M219.149 142.759C219.244 143.008 219.373 143.243 219.53 143.458C219.825 143.755 220.225 143.572 220.582 143.5C220.906 143.449 221.239 143.487 221.543 143.609C221.848 143.731 222.114 143.933 222.313 144.194C222.174 143.503 221.872 142.856 221.431 142.307C220.99 141.757 220.424 141.322 219.779 141.036C218.942 140.747 218.06 140.609 217.174 140.629L217.022 140.668C217.408 141.789 218.619 141.764 219.149 142.759Z" fill="#4086F4"/>
<path d="M209.541 140.436C209.321 140.076 209.101 139.716 208.881 139.355C208.664 138.938 208.369 138.567 208.01 138.263C207.932 138.198 207.843 138.149 207.746 138.119C207.649 138.088 207.548 138.077 207.447 138.086C207.346 138.095 207.248 138.124 207.158 138.171C207.068 138.217 206.988 138.281 206.923 138.359L206.912 138.373L206.939 138.579C207.528 139.21 207.93 139.994 208.099 140.841C208.149 141.209 208.132 141.59 208.176 141.96C208.18 142.131 208.219 142.3 208.289 142.457C208.359 142.613 208.459 142.754 208.584 142.872C208.931 143.104 209.338 142.763 209.585 142.346C209.805 142.004 209.904 141.598 209.866 141.193C209.811 140.921 209.7 140.663 209.541 140.436Z" fill="#4086F4"/>
<path d="M212.996 140.905C213.038 140.567 213.011 140.225 212.916 139.899C212.9 139.457 213.017 139.021 213.252 138.647C213.485 138.294 213.662 137.907 213.776 137.5C213.824 137.314 213.815 137.118 213.751 136.938C213.678 136.774 213.501 136.699 213.4 136.829L213.617 136.968C213.324 136.916 213.023 136.931 212.737 137.011C212.574 137.073 212.428 137.174 212.312 137.305C212.196 137.436 212.113 137.592 212.071 137.762C212.035 138.026 211.976 138.286 211.896 138.541C211.766 138.806 211.516 138.894 211.359 139.127C211.252 139.334 211.197 139.564 211.201 139.797C211.205 140.029 211.267 140.257 211.381 140.46C211.578 140.792 211.892 141.039 212.262 141.152C212.527 141.247 212.875 141.252 212.996 140.905Z" fill="#4086F4"/>
<path d="M174.638 94.6136C172.493 93.4547 170.111 92.8006 167.675 92.701C165.238 92.6014 162.811 93.059 160.578 94.0389C158.613 94.8936 156.543 96.4267 155.887 99.1953C158.539 97.6316 161.972 100.102 162.655 104.066L162.496 104.11C162.135 106.855 162.94 109.844 164.498 111.546C164.614 110.778 164.899 110.045 165.334 109.401C165.769 108.757 166.341 108.218 167.011 107.823C168.155 107.071 169.422 106.525 170.295 105.233C171.331 103.701 171.594 101.462 172.005 99.42C172.417 97.3777 173.197 95.1826 174.638 94.6136Z" fill="#4086F4"/>
<path d="M159.792 117.974C159.057 119.076 158.076 119.768 157.196 120.629C156.179 121.552 155.513 122.798 155.308 124.155C155.196 125.114 155.369 126.089 155.345 127.058C155.321 128.028 154.997 129.119 154.337 129.36C153.295 129.736 152.499 127.803 151.428 127.667C150.577 127.561 149.811 128.899 150.057 130.06C150.304 131.22 151.463 131.734 152.128 130.976C152.73 131.985 152.306 133.816 151.402 134.126C151.306 134.762 151.211 135.395 151.118 136.031C148.832 134.433 146.523 132.809 144.579 130.47C142.417 127.891 141.076 124.725 140.729 121.378C140.477 118.69 140.851 115.614 139.615 113.545C138.626 111.889 136.929 111.524 135.401 111.627C135.123 111.646 134.842 111.677 134.563 111.712C135.464 109.009 136.608 106.393 137.981 103.897C138.292 103.764 138.581 103.584 138.838 103.364C140.259 102.159 140.89 99.7193 142.044 98.0318C142.118 97.9232 142.195 97.8172 142.275 97.7139C143.455 96.1748 145.035 95.3827 146.562 94.6463C149.943 93.0065 153.422 91.3455 156.991 91.5733L155.976 91.6713C154.791 94.988 153.604 98.3047 152.417 101.621C152.237 102.13 152.055 102.64 151.871 103.15C151.197 105.036 150.503 107.044 150.606 109.155C150.667 110.406 151.102 111.741 151.929 112.17C152.701 112.568 153.544 112.08 154.289 111.598C154.605 111.397 154.918 111.195 155.233 110.991C156.366 110.263 157.62 109.516 158.816 110.003C159.911 110.448 160.72 111.934 160.874 113.537C161.015 115.095 160.634 116.656 159.792 117.974Z" fill="#4086F4"/>
<path d="M166.526 140.618C163.219 138.584 159.912 136.55 156.605 134.516L156.661 134.372C154.605 135.154 153.751 138.805 154.091 141.791C154.431 144.777 155.583 147.446 156.165 150.356C156.95 154.337 156.654 158.456 155.307 162.285C159.656 157.41 163.504 152.112 166.795 146.471C167.254 145.76 167.604 144.984 167.834 144.169C168.076 143.301 167.99 142.373 167.591 141.565C167.32 141.166 166.954 140.841 166.526 140.618Z" fill="#4086F4"/>
<path d="M153.475 103.611C153.086 104.444 153.026 105.393 153.307 106.268C153.633 106.973 154.225 107.521 154.954 107.792L156.781 108.697C157.389 108.998 158.044 109.302 158.664 109.054C159.411 108.755 159.929 107.585 159.795 106.498C159.653 105.342 158.923 104.546 158.248 103.869C157.304 102.921 156.359 101.973 155.415 101.025L154.883 101.676C154.307 102.237 153.831 102.891 153.475 103.611Z" fill="#4086F4"/>
<path d="M217.795 115.974C218.617 116.168 219.439 116.361 220.261 116.555C220.118 119.328 218.742 121.895 216.896 122.825C216.127 123.212 215.271 123.355 214.634 124.078C214.059 124.735 213.767 125.758 213.499 126.735C213.03 128.441 212.561 130.147 212.091 131.853C211.587 133.692 210.94 135.734 209.63 136.396C208.506 136.966 207.22 136.269 206.356 135.101C205.491 133.933 204.963 132.362 204.452 130.831C204.483 132.5 203.707 134.137 202.606 134.717C201.503 135.297 200.161 134.772 199.424 133.477C198.894 132.547 198.674 131.321 198.154 130.378C197.634 129.435 196.544 128.894 195.977 129.779C195.603 130.367 195.651 131.268 195.465 132.015C195.372 132.511 195.126 132.965 194.762 133.315C194.398 133.665 193.933 133.893 193.434 133.967C192.974 133.957 192.522 133.853 192.104 133.662C191.686 133.471 191.311 133.197 191.002 132.857C189.378 131.198 188.321 129.068 187.982 126.772C187.752 125.671 187.781 124.532 188.067 123.445C188.393 122.414 189.18 121.62 189.963 121.816C190.477 120.73 189.462 119.288 188.547 119.416C187.629 119.543 186.911 120.526 186.158 121.281C185.407 122.036 184.357 122.584 183.601 121.834C183.618 122.108 183.525 122.378 183.343 122.584C183.161 122.79 182.905 122.915 182.63 122.932C182.603 122.933 182.576 122.934 182.549 122.934C182.046 122.789 181.579 122.542 181.178 122.208C179.446 121.13 177.248 121.845 176.017 123.885C176.786 120.616 177.913 116.864 180.276 116.096C181.241 115.781 182.294 116.041 183.206 115.495C184.821 114.528 185.147 110.875 183.752 109.367C183.93 110.793 183.896 112.456 183.143 113.431C182.389 114.406 180.809 113.77 180.905 112.329C180.883 112.532 180.798 112.723 180.661 112.874C180.525 113.025 180.344 113.13 180.144 113.172C179.945 113.214 179.737 113.193 179.55 113.11C179.364 113.027 179.209 112.887 179.107 112.711C178.606 111.948 178.648 110.7 179.003 109.789C179.37 108.963 179.895 108.218 180.549 107.595C181.809 106.247 183.087 104.883 184.545 104.035C186.006 103.187 187.693 102.901 189.157 103.743C189.928 104.188 190.607 104.93 191.395 105.322C191.58 105.437 191.786 105.514 192.001 105.549C192.216 105.585 192.435 105.577 192.647 105.528C192.859 105.478 193.06 105.387 193.237 105.26C193.413 105.133 193.564 104.973 193.678 104.788C193.687 104.774 193.696 104.759 193.704 104.745C194.29 103.717 194.015 102.191 194.232 100.906C194.622 98.6359 196.894 97.5736 198.154 99.073C197.213 98.832 196.239 99.9446 196.123 101.293C196.003 102.641 196.685 104.003 197.597 104.411C199.13 105.089 200.631 103.383 201.789 101.804C202.999 100.151 204.209 98.4991 205.422 96.8478C205.616 96.5666 205.833 96.3025 206.072 96.0584C206.452 95.6885 206.958 95.4767 207.488 95.4659C208.019 95.4551 208.533 95.646 208.928 96.0001C210.153 96.9988 210.728 99.0466 211.733 100.456C213.192 102.504 215.374 103.002 217.405 103.399C218.919 103.693 220.434 103.989 221.95 104.286C222.961 106.165 223.842 108.109 224.589 110.107C221.809 111.373 219.451 113.409 217.795 115.974Z" fill="#4086F4"/>
<path d="M192.629 136.659C190.942 136.765 189.605 134.69 188.717 132.649C187.829 130.608 187.019 128.273 185.497 127.234C184.627 126.641 183.635 126.559 182.692 126.271C182.157 126.136 181.662 125.876 181.247 125.512C180.833 125.147 180.512 124.689 180.31 124.176L179.24 123.744C177.743 124.492 176.372 125.469 175.176 126.639C173.81 128.088 172.96 129.946 172.755 131.927C172.551 134.067 173.306 136.453 174.716 137.257C175.831 137.892 177.128 137.492 178.257 138.073C179.668 138.8 180.505 140.91 180.822 142.994C181.139 145.078 181.059 147.244 181.286 149.352C181.513 151.459 182.138 153.652 183.431 154.732C185.05 156.084 187.426 154.961 188.152 152.5C188.508 151.294 188.496 149.932 188.762 148.679C189.231 146.473 190.498 144.836 191.502 143.027C192.506 141.217 193.297 138.759 192.629 136.659Z" fill="#4086F4"/>
<path d="M192.157 146.858C191.953 147.227 191.778 147.611 191.633 148.007C191.441 148.648 191.314 149.307 191.254 149.973C191.206 150.352 191.192 150.836 191.43 151.021C191.498 151.066 191.58 151.085 191.661 151.074C191.742 151.063 191.817 151.023 191.87 150.961C192.002 150.821 192.111 150.661 192.19 150.486C192.657 149.682 193.02 148.823 193.269 147.927C193.53 146.978 193.467 145.968 193.093 145.058C192.781 145.658 192.469 146.258 192.157 146.858Z" fill="#4086F4"/>
<path d="M136.751 137.281C136.208 136.794 135.778 136.193 135.492 135.521C135.206 134.85 135.07 134.124 135.096 133.394C135.121 132.665 135.305 131.949 135.637 131.299C135.968 130.649 136.439 130.079 137.014 129.629L131.279 112.835L140.215 115.154L144.287 130.746C144.979 131.763 145.274 132.998 145.115 134.217C144.956 135.436 144.355 136.555 143.425 137.36C142.496 138.166 141.303 138.603 140.072 138.589C138.842 138.575 137.659 138.109 136.749 137.282L136.751 137.281Z" fill="#FFB7B7"/>
<path d="M175.958 114.981C176.115 115.126 176.262 115.281 176.397 115.447C176.537 115.688 176.608 115.962 176.604 116.241C176.599 116.519 176.518 116.791 176.37 117.028C176.573 117.016 176.772 116.962 176.953 116.87C177.135 116.778 177.295 116.649 177.424 116.492C177.732 116.142 178.003 115.761 178.233 115.355C178.341 115.216 178.418 115.055 178.459 114.884C178.5 114.713 178.504 114.535 178.471 114.363C178.391 114.135 178.203 114.038 178.071 113.867C177.888 113.533 177.763 113.171 177.701 112.795C177.628 112.442 177.458 112.117 177.21 111.856C176.962 111.595 176.646 111.408 176.297 111.317L176.382 111.333C176.238 111.418 176.124 111.546 176.057 111.699C175.99 111.852 175.972 112.023 176.006 112.186C176.057 112.517 176.27 112.791 176.249 113.129C176.218 113.613 175.733 113.841 175.703 114.326C175.699 114.569 175.79 114.804 175.958 114.981Z" fill="#4086F4"/>
<path d="M226.047 114.719C225.736 115.633 225.567 116.59 225.543 117.556C224.244 115.972 224.037 113.002 224.891 110.946C225.329 112.181 225.714 113.438 226.047 114.719Z" fill="#4086F4"/>
<path d="M173.067 106.742L173.075 106.74C173.127 106.693 173.175 106.642 173.219 106.587L173.067 106.742Z" fill="#4086F4"/>
<path d="M173.573 109.018C173.776 108.84 173.926 108.61 174.006 108.353C174.087 108.096 174.096 107.822 174.031 107.561C173.909 107.009 173.475 106.639 173.075 106.74C172.959 106.858 172.815 106.944 172.656 106.991C172.497 107.037 172.33 107.043 172.168 107.007C171.921 106.943 171.649 106.78 171.435 106.966C171.312 107.105 171.226 107.272 171.185 107.453C171.106 107.697 171.026 107.94 170.947 108.184C170.909 108.271 170.899 108.368 170.919 108.461C170.934 108.498 170.958 108.531 170.99 108.556C171.021 108.581 171.059 108.597 171.099 108.604C171.575 108.744 172.052 108.884 172.528 109.024C172.692 109.1 172.871 109.139 173.051 109.137C173.232 109.136 173.41 109.095 173.573 109.018Z" fill="#4086F4"/>
<path d="M183.153 98.7719C183.301 98.9167 183.488 99.015 183.692 99.0547C183.895 99.0943 184.106 99.0737 184.298 98.9952C184.695 98.8217 185.06 98.5812 185.375 98.2842C185.637 98.0909 185.859 97.8492 186.029 97.5723C186.122 97.4068 186.182 97.2244 186.205 97.0357C186.228 96.8469 186.214 96.6555 186.162 96.4724C186.089 96.297 185.973 96.1431 185.823 96.0253C185.674 95.9074 185.498 95.8295 185.31 95.7989C184.781 95.6422 184.252 95.4855 183.723 95.3289L184.106 94.9844C183.712 94.7734 183.277 95.165 183.031 95.6499C182.873 95.9665 182.763 96.3047 182.705 96.6535C182.621 97.018 182.618 97.3962 182.695 97.762C182.772 98.1279 182.929 98.4725 183.153 98.7719Z" fill="#4086F4"/>
<path d="M192.489 95.6406C192.638 95.8048 192.844 95.9061 193.065 95.9241C193.287 95.9421 193.506 95.8753 193.68 95.7374C193.829 95.6252 193.954 95.4829 194.044 95.3196C194.135 95.1564 194.19 94.9758 194.207 94.7898C194.244 94.3742 194.038 93.9123 193.745 93.8764L193.812 93.4873C193.246 93.3852 192.55 93.3648 192.246 94.0513C192.144 94.3143 192.113 94.5995 192.155 94.8784C192.198 95.1573 192.313 95.4201 192.489 95.6406Z" fill="#4086F4"/>
<path d="M134.189 127.089L142.859 123.229L139.946 93.9321L142.659 64.3899L131.083 58.1487L128.63 61.2382V61.3083L127.331 98.6652L127.338 98.6933L134.189 127.089Z" fill="#E6E7E8"/>
<path d="M164.838 43.1437V30.7389C164.839 28.5554 164.409 26.393 163.573 24.3753C162.738 22.3577 161.512 20.5243 159.967 18.9799C158.422 17.4355 156.588 16.2103 154.568 15.3745C152.549 14.5386 150.385 14.1084 148.199 14.1084C146.013 14.1084 143.849 14.5386 141.83 15.3745C139.811 16.2103 137.976 17.4355 136.431 18.9799C134.886 20.5243 133.661 22.3577 132.825 24.3753C131.989 26.393 131.56 28.5554 131.561 30.7389C128.628 36.8438 130.463 39.7463 131.561 43.1437C131.562 43.7354 131.797 44.3025 132.216 44.7208C132.635 45.1391 133.203 45.3746 133.795 45.3756H162.602C163.195 45.3748 163.763 45.1395 164.182 44.7212C164.601 44.3028 164.837 43.7355 164.838 43.1437Z" fill="#2F2E41"/>
<path d="M152.305 45.1886C159.042 45.1886 164.504 39.7323 164.504 33.0016C164.504 26.271 159.042 20.8147 152.305 20.8147C145.568 20.8147 140.106 26.271 140.106 33.0016C140.106 39.7323 145.568 45.1886 152.305 45.1886Z" fill="#FFB7B7"/>
<path d="M168.774 31.731C168.77 28.245 167.382 24.9028 164.914 22.4378C162.447 19.9728 159.102 18.5862 155.612 18.5823H153.129C149.639 18.5862 146.294 19.9728 143.826 22.4378C141.359 24.9028 139.971 28.245 139.967 31.731V31.9792C141.827 33.2495 143.593 33.4353 145.215 31.9792L147.005 26.9719L147.363 31.9792H150.076L150.98 29.453L151.161 31.9792C154.825 35.0966 161.754 33.6027 168.774 31.9792L168.774 31.731Z" fill="#2F2E41"/>
<path d="M267.008 214.393C262.106 212.141 256.818 209.488 251.145 206.433C221.801 190.629 185.717 165.975 149.54 137.013C113.364 108.051 81.4158 78.2405 59.5823 53.0738C48.9467 40.8142 41.2856 30.315 36.8124 21.8678C32.0761 12.9248 31.121 6.58737 33.9728 3.03191C39.5289 -3.8946 57.6231 2.3442 71.8239 8.79768L71.3049 9.93778C51.8035 1.07539 38.8929 -1.09887 34.9512 3.81524C29.9307 10.074 39.2538 27.7289 60.5297 52.2535C82.3152 77.3649 114.205 107.12 150.324 136.036C186.444 164.952 222.461 189.561 251.74 205.33C280.333 220.731 299.613 225.974 304.634 219.715C308.802 214.518 303.116 201.43 288.624 182.861L289.613 182.091C300.143 195.583 311.466 213.199 305.612 220.498C302.76 224.054 296.361 224.503 286.592 221.834C281.024 220.312 274.47 217.821 267.008 214.393Z" fill="#4086F4"/>
<path d="M79.2832 129.946C65.7673 123.737 53.4155 117.501 42.5972 111.398C28.4567 103.421 17.7101 96.1035 10.6559 89.6494C3.18743 82.8156 0.156336 77.1673 1.64682 72.8612C4.55001 64.4727 23.6907 64.2753 39.2365 65.5868L39.1308 66.8351C17.7826 65.0338 4.89134 67.3192 2.8314 73.2708C0.207833 80.8508 14.9266 94.35 43.2136 110.307C72.1781 126.647 112.22 143.968 155.965 159.078C199.71 174.19 241.909 185.279 274.79 190.304C306.902 195.211 326.823 193.678 329.447 186.098C331.625 179.804 321.868 169.386 301.974 156.76L302.646 155.703C317.101 164.877 333.691 177.668 330.632 186.507C329.141 190.813 323.265 193.384 313.167 194.15C303.628 194.872 290.653 193.995 274.601 191.542C241.647 186.506 199.37 175.397 155.556 160.262C128.07 150.768 102.034 140.397 79.2832 129.946Z" fill="#4086F4"/>
<path d="M25.0633 194.511C29.0982 194.511 32.3692 191.243 32.3692 187.212C32.3692 183.181 29.0982 179.913 25.0633 179.913C21.0283 179.913 17.7574 183.181 17.7574 187.212C17.7574 191.243 21.0283 194.511 25.0633 194.511Z" fill="#E6E6E6"/>
<path d="M243.794 155.291C246.264 155.291 248.266 153.291 248.266 150.823C248.266 148.355 246.264 146.355 243.794 146.355C241.324 146.355 239.322 148.355 239.322 150.823C239.322 153.291 241.324 155.291 243.794 155.291Z" fill="#FF6584"/>
<path d="M99.7888 66.2056C103.824 66.2056 107.095 62.9378 107.095 58.9068C107.095 54.8758 103.824 51.608 99.7888 51.608C95.7539 51.608 92.483 54.8758 92.483 58.9068C92.483 62.9378 95.7539 66.2056 99.7888 66.2056Z" fill="#E6E6E6"/>
</g>
<defs>
<clipPath id="clip0_3387_7958">
<rect width="331" height="250" fill="white"/>
</clipPath>
</defs>
</svg>
