<svg width="347" height="250" viewBox="0 0 347 250" fill="none" xmlns="http://www.w3.org/2000/svg">
<g clip-path="url(#clip0_3387_7859)">
<path d="M171.092 248.944H157.763V146.409H168.603C169.128 146.409 169.632 146.617 170.004 146.987C170.376 147.357 170.587 147.859 170.589 148.384L171.092 248.944Z" fill="#CCCCCC"/>
<path d="M159.008 249.487H15.8636V176.464H159.008V249.487Z" fill="white"/>
<path d="M102.588 249.215H16.1352V176.736H158.737V193.097C158.72 207.975 152.799 222.239 142.272 232.76C131.746 243.28 117.474 249.198 102.588 249.215Z" fill="#F2F2F2"/>
<path d="M168.921 149.321C168.849 149.457 168.793 149.601 168.755 149.75L163.819 168.766L158.465 178.9H16.4069V176.376L24.4947 168.766L33.9296 150.729C34.3461 149.933 34.893 149.212 35.5477 148.596C37.0416 147.191 39.0155 146.409 41.0668 146.409H167.165C167.507 146.409 167.844 146.497 168.142 146.666C168.44 146.834 168.689 147.076 168.866 147.369C169.043 147.662 169.141 147.996 169.15 148.338C169.16 148.68 169.081 149.019 168.921 149.321Z" fill="#F2F2F2"/>
<path d="M159.008 249.487H15.8636V176.464H159.008V249.487ZM16.9502 248.4H157.922V177.55H16.9502V248.4Z" fill="#E6E6E6"/>
<path d="M43.9608 223.563H21.1422V224.825H43.9608V223.563Z" fill="white"/>
<path d="M325.38 249.449L325.337 249.218C324.632 245.331 324.782 241.337 325.777 237.514C326.772 233.691 328.588 230.13 331.099 227.079C332.521 225.379 334.151 223.864 335.952 222.571L336.123 222.448L336.199 222.645C337.094 225.005 338.225 227.369 338.74 228.415L339.087 220.605L339.286 220.5C340.195 220.013 341.229 219.81 342.254 219.916C343.28 220.021 344.251 220.432 345.041 221.094C345.858 221.75 346.46 222.637 346.769 223.638C347.078 224.64 347.08 225.711 346.775 226.714C346.505 227.631 346.25 228.583 346.003 229.504C345.155 232.667 344.278 235.937 342.579 238.692C341.272 240.764 339.519 242.518 337.447 243.826C335.375 245.134 333.037 245.964 330.604 246.253L325.38 249.449Z" fill="#F2F2F2"/>
<path d="M347 249.354C347 249.439 346.984 249.523 346.951 249.601C346.919 249.68 346.871 249.751 346.811 249.811C346.751 249.871 346.68 249.919 346.601 249.951C346.523 249.984 346.438 250 346.354 250H0.646563C0.475089 250 0.310635 249.932 0.189384 249.811C0.0681325 249.689 1.52588e-05 249.525 1.52588e-05 249.354C1.52588e-05 249.182 0.0681325 249.018 0.189384 248.897C0.310635 248.776 0.475089 248.708 0.646563 248.708H346.354C346.438 248.707 346.523 248.724 346.601 248.756C346.68 248.789 346.751 248.836 346.811 248.896C346.871 248.956 346.919 249.028 346.951 249.106C346.984 249.185 347 249.269 347 249.354Z" fill="#CCCCCC"/>
<path d="M299.713 242.413L293.752 242.413L290.917 219.434L299.714 219.435L299.713 242.413Z" fill="#FFB6B6"/>
<path d="M299.923 248.628L281.593 248.627V248.396C281.593 246.505 282.345 244.691 283.683 243.354C285.021 242.017 286.835 241.265 288.727 241.265H288.728L292.076 238.727L298.323 241.266L299.923 241.266L299.923 248.628Z" fill="#2F2E41"/>
<path d="M43.9608 219.146H21.1422V220.408H43.9608V219.146Z" fill="white"/>
<path d="M43.9608 214.729H21.1422V215.991H43.9608V214.729Z" fill="white"/>
<path d="M273.798 213.935L268.292 216.216L256.865 196.076L264.992 192.708L273.798 213.935Z" fill="#FFB6B6"/>
<path d="M276.375 219.595L259.443 226.612L259.354 226.398C258.629 224.651 258.628 222.688 259.352 220.941C260.075 219.193 261.463 217.805 263.211 217.08L263.212 217.08L265.331 213.453L272.075 213.407L273.553 212.794L276.375 219.595Z" fill="#2F2E41"/>
<path d="M29.9813 200.67C34.5144 200.67 38.1891 196.998 38.1891 192.467C38.1891 187.937 34.5144 184.264 29.9813 184.264C25.4483 184.264 21.7735 187.937 21.7735 192.467C21.7735 196.998 25.4483 200.67 29.9813 200.67Z" fill="white"/>
<path d="M29.2408 193.187C31.4676 193.187 33.2727 191.382 33.2727 189.157C33.2727 186.931 31.4676 185.127 29.2408 185.127C27.014 185.127 25.2089 186.931 25.2089 189.157C25.2089 191.382 27.014 193.187 29.2408 193.187Z" fill="#D1D3D4"/>
<path d="M166.456 159.049L163.819 168.766H24.4949L28.9968 160.678L166.456 159.049Z" fill="#CCCCCC"/>
<path d="M119.94 163.255H112.97V109.634H118.639C118.913 109.634 119.177 109.743 119.371 109.937C119.566 110.13 119.676 110.393 119.677 110.667L119.94 163.255Z" fill="#CCCCCC"/>
<path d="M113.621 163.539H38.763V125.352H113.621V163.539Z" fill="white"/>
<path d="M84.1158 163.397H38.905V125.494H113.479V134.05C113.47 141.83 110.374 149.29 104.869 154.792C99.3642 160.293 91.9007 163.388 84.1158 163.397Z" fill="#F2F2F2"/>
<path d="M118.805 111.157C118.767 111.229 118.738 111.304 118.718 111.382L116.137 121.326L113.337 126.626H39.0471V125.306L43.2767 121.326L48.2107 111.893C48.4285 111.477 48.7145 111.1 49.0569 110.778C49.8381 110.043 50.8704 109.634 51.9431 109.634H117.887C118.066 109.634 118.242 109.681 118.397 109.769C118.553 109.857 118.684 109.983 118.776 110.137C118.869 110.29 118.92 110.464 118.925 110.643C118.93 110.822 118.889 110.999 118.805 111.157Z" fill="#F2F2F2"/>
<path d="M113.621 163.539H38.763V125.352H113.621V163.539ZM39.3312 162.971H113.053V125.92H39.3312V162.971Z" fill="#E6E6E6"/>
<path d="M53.4566 149.982H41.5234V150.642H53.4566V149.982Z" fill="white"/>
<path d="M53.4566 147.672H41.5234V148.332H53.4566V147.672Z" fill="white"/>
<path d="M53.4566 145.362H41.5234V146.022H53.4566V145.362Z" fill="white"/>
<path d="M46.1459 138.01C48.5165 138.01 50.4382 136.09 50.4382 133.72C50.4382 131.351 48.5165 129.431 46.1459 129.431C43.7753 129.431 41.8536 131.351 41.8536 133.72C41.8536 136.09 43.7753 138.01 46.1459 138.01Z" fill="white"/>
<path d="M33.5011 124.916C28.4965 124.796 23.6492 126.668 20.0254 130.12C16.4017 133.572 14.2984 138.321 14.1782 143.323C13.9279 153.739 21.3481 175.652 32.0805 184.045C35.1735 165.871 50.5929 153.889 51.9177 144.229C53.3334 133.906 43.9226 125.166 33.5011 124.916Z" fill="#D1D3D4"/>
<path d="M31.5623 148.17C34.9621 148.17 37.7181 145.415 37.7181 142.018C37.7181 138.62 34.9621 135.865 31.5623 135.865C28.1625 135.865 25.4065 138.62 25.4065 142.018C25.4065 145.415 28.1625 148.17 31.5623 148.17Z" fill="white"/>
<path opacity="0.2" d="M36.2468 137.178C37.7149 137.892 38.8391 139.159 39.3723 140.701C39.9054 142.244 39.8036 143.934 39.0895 145.402C38.7358 146.128 38.2425 146.778 37.6376 147.314C37.0327 147.85 36.3281 148.262 35.5641 148.525C34.021 149.058 32.3293 148.957 30.8612 148.243C32.3104 148.433 33.7801 148.101 35.0071 147.308C36.2341 146.514 37.1384 145.309 37.5582 143.91C37.9779 142.511 37.8857 141.008 37.298 139.67C36.7103 138.333 35.6655 137.248 34.3506 136.61C35.0092 136.696 35.6495 136.888 36.2468 137.178Z" fill="#231F20"/>
<path d="M143.904 135.231L152.452 132.356L157.213 155.613L151.42 157.56L143.904 135.231Z" fill="#FFB6B6"/>
<path d="M148.787 161.494L152.596 160.997L152.806 157.314L155.017 160.68L165.118 159.362C165.603 159.299 166.054 159.082 166.406 158.745C166.759 158.407 166.994 157.965 167.078 157.485C167.162 157.004 167.09 156.509 166.872 156.072C166.654 155.635 166.302 155.279 165.868 155.056L157.073 150.541L156.599 146.908L148.18 148.522L148.787 161.494Z" fill="#2F2E41"/>
<path d="M129.415 133.444L137.895 130.371L143.195 153.51L137.45 155.592L129.415 133.444Z" fill="#FFB6B6"/>
<path d="M138.728 161.527L142.183 159.85L141.216 156.291L144.379 158.784L153.543 154.337C153.983 154.124 154.342 153.776 154.57 153.344C154.797 152.912 154.88 152.419 154.808 151.936C154.735 151.454 154.509 151.007 154.164 150.661C153.82 150.316 153.373 150.09 152.89 150.016L143.118 148.516L141.517 145.22L134.042 149.415L138.728 161.527Z" fill="#2F2E41"/>
<path opacity="0.2" d="M51.9435 144.246C50.6186 153.906 35.1993 165.889 32.1062 184.063C31.0962 183.265 30.1465 182.394 29.265 181.456C33.0298 164.297 47.4659 152.795 48.746 143.462C49.8917 135.108 43.9462 127.792 36.1132 125.172C45.4458 126.658 53.2408 134.787 51.9435 144.246Z" fill="#231F20"/>
<path d="M117.516 116.245L116.137 121.326H43.2768L45.631 117.096L117.516 116.245Z" fill="#CCCCCC"/>
<path d="M268.586 84.0181L258.69 82.6016C255.344 88.1946 254.154 103.081 254.154 103.081L244.47 126.086C243.829 126.522 243.314 127.118 242.976 127.816C242.639 128.513 242.492 129.288 242.549 130.06C242.606 130.833 242.866 131.577 243.302 132.218C243.739 132.858 244.336 133.372 245.035 133.709C245.733 134.045 246.508 134.192 247.281 134.133C248.054 134.075 248.798 133.815 249.438 133.378C250.079 132.941 250.593 132.343 250.928 131.645C251.264 130.946 251.41 130.172 251.351 129.399L267.251 102.623L268.586 84.0181Z" fill="#FFB8B8"/>
<path d="M306.528 111.696L264.226 116.113L258.568 135.161L238.972 166.636L260.608 206.367L268.228 199.532L260.914 167.448L282.745 143.893L286.885 142.176L290.171 229.584L302.325 229.784L307.643 133.334C310.199 124.814 309.43 117.779 306.528 111.696Z" fill="#2F2E41"/>
<path d="M267.011 56.5617C268.542 56.7987 270.003 57.3703 271.288 58.2356C272.574 59.1009 273.653 60.2387 274.448 61.5681C275.244 62.8976 275.736 64.3859 275.891 65.9271C276.045 67.4684 275.858 69.0248 275.342 70.4856L273.243 76.4342C273.243 76.4342 272.1 94.3456 267.74 99.4016L254.364 98.1913C254.364 98.1913 256.809 89.1548 254.932 84.7826C253.782 82.105 253.846 72.8568 254.979 65.3336C255.191 63.9674 255.671 62.6564 256.391 61.4758C257.111 60.2952 258.057 59.2681 259.174 58.4533C260.292 57.6385 261.559 57.0521 262.904 56.7275C264.249 56.4029 265.644 56.3465 267.011 56.5617Z" fill="#E6E6E6"/>
<path d="M291.019 51.3955L284.076 43.5817L273.105 44.8L266.08 54.6248C262.342 55.4839 259.074 57.7424 256.951 60.9358C254.827 64.1292 254.009 68.0145 254.665 71.7925C257.391 87.4795 266.654 102.694 263.595 110.434C258.952 122.183 258.669 126.975 269.783 125.328C280.897 123.681 318.132 119.883 310.913 112.668C303.694 105.453 302.109 93.3966 302.109 93.3966L301.819 65.813C302.126 64.1493 302.085 62.4402 301.699 60.7931C301.313 59.146 300.59 57.5966 299.575 56.2424C298.561 54.8882 297.277 53.7585 295.805 52.9243C294.332 52.0902 292.703 51.5697 291.019 51.3955L291.019 51.3955Z" fill="#E6E6E6"/>
<path d="M282.581 129.787H278.539V98.6941H281.826C281.985 98.6941 282.138 98.7571 282.251 98.8693C282.364 98.9816 282.427 99.1339 282.428 99.293L282.581 129.787Z" fill="#3F3D56"/>
<path d="M278.916 129.952H235.509V107.808H278.916V129.952Z" fill="white"/>
<path d="M261.807 129.869H235.591V107.891H278.834V112.852C278.829 117.364 277.033 121.689 273.841 124.879C270.649 128.07 266.321 129.864 261.807 129.869Z" fill="#4086F4"/>
<path d="M281.922 99.5773C281.901 99.6185 281.884 99.6622 281.872 99.7073L280.375 105.474L278.752 108.547H235.674V107.781L238.126 105.474L240.987 100.004C241.113 99.7627 241.279 99.544 241.478 99.3573C241.931 98.9313 242.529 98.6941 243.151 98.6941H281.39C281.494 98.6941 281.596 98.7209 281.686 98.7719C281.776 98.823 281.852 98.8965 281.906 98.9853C281.959 99.0742 281.989 99.1754 281.992 99.2791C281.995 99.3828 281.971 99.4855 281.922 99.5773Z" fill="#3F3D56"/>
<path d="M278.916 129.952H235.509V107.808H278.916V129.952ZM235.838 129.622H278.587V108.137H235.838V129.622Z" fill="#3F3D56"/>
<path d="M244.029 122.091H237.11V122.473H244.029V122.091Z" fill="white"/>
<path d="M244.029 120.751H237.11V121.134H244.029V120.751Z" fill="white"/>
<path d="M244.029 119.412H237.11V119.794H244.029V119.412Z" fill="white"/>
<path d="M239.79 115.148C241.165 115.148 242.279 114.035 242.279 112.661C242.279 111.287 241.165 110.173 239.79 110.173C238.415 110.173 237.301 111.287 237.301 112.661C237.301 114.035 238.415 115.148 239.79 115.148Z" fill="white"/>
<path d="M281.174 102.527L280.375 105.474H238.126L239.491 103.021L281.174 102.527Z" fill="#4086F4"/>
<path d="M238.455 91.8613C240.858 91.8613 242.807 89.9142 242.807 87.5124C242.807 85.1105 240.858 83.1635 238.455 83.1635C236.052 83.1635 234.104 85.1105 234.104 87.5124C234.104 89.9142 236.052 91.8613 238.455 91.8613Z" fill="#4086F4"/>
<path d="M299.468 81.1753L289.572 79.7588C286.226 85.3518 285.036 100.239 285.036 100.239L275.352 123.243C274.711 123.679 274.196 124.275 273.858 124.973C273.521 125.671 273.374 126.445 273.431 127.218C273.488 127.99 273.748 128.734 274.184 129.375C274.62 130.015 275.218 130.53 275.916 130.866C276.615 131.202 277.39 131.349 278.163 131.291C278.936 131.233 279.68 130.972 280.32 130.535C280.961 130.098 281.475 129.5 281.81 128.802C282.146 128.103 282.292 127.329 282.232 126.556L298.133 99.7798L299.468 81.1753Z" fill="#FFB8B8"/>
<path d="M294.104 53.7187C295.636 53.9558 297.097 54.5273 298.382 55.3926C299.668 56.258 300.746 57.3958 301.542 58.7252C302.337 60.0546 302.83 61.5429 302.985 63.0842C303.139 64.6255 302.952 66.1819 302.436 67.6427L300.336 73.5913C300.336 73.5913 302.981 91.5027 298.622 96.5586L285.246 95.3484C285.246 95.3484 287.691 86.3118 285.814 81.9396C284.664 79.262 284.728 70.0139 285.861 62.4906C286.726 56.746 288.36 52.8297 294.104 53.7187Z" fill="#E6E6E6"/>
<path d="M105.111 44.7528C103.704 44.8448 102.389 45.4817 101.445 46.528C100.502 47.5743 100.003 48.9474 100.057 50.3551C100.072 50.6411 100.112 50.9253 100.174 51.2049L84.2016 61.2618L93.0319 65.1651L106.846 55.0164C107.985 54.6684 108.978 53.953 109.668 52.982C110.358 52.011 110.707 50.839 110.661 49.6488C110.628 48.9718 110.462 48.3079 110.172 47.6951C109.883 47.0822 109.475 46.5323 108.973 46.0769C108.471 45.6214 107.884 45.2693 107.245 45.0406C106.607 44.8119 105.93 44.7111 105.253 44.744C105.205 44.7463 105.158 44.7492 105.111 44.7528Z" fill="#FFB6B6"/>
<path d="M210.08 24.0828C205.245 26.4926 201.566 30.7232 199.852 35.844C198.139 40.9647 198.531 46.5561 200.942 51.3881C205.963 61.4502 224.107 78.611 238.583 81.2039C232.356 62.3069 241.014 43.0989 237.4 33.2155C233.538 22.6548 220.147 19.0646 210.08 24.0828Z" fill="#4086F4"/>
<path d="M216.866 48.0138C220.535 48.0138 223.509 45.0411 223.509 41.374C223.509 37.707 220.535 34.7343 216.866 34.7343C213.197 34.7343 210.222 37.707 210.222 41.374C210.222 45.0411 213.197 48.0138 216.866 48.0138Z" fill="white"/>
<path opacity="0.2" d="M218.89 34.3944C219.763 34.3641 220.633 34.5059 221.45 34.8118C222.268 35.1176 223.017 35.5815 223.655 36.1769C224.293 36.7722 224.807 37.4874 225.168 38.2816C225.53 39.0757 225.731 39.9332 225.761 40.8051C225.79 41.677 225.647 42.5462 225.341 43.363C225.034 44.1798 224.569 44.9281 223.973 45.5653C223.377 46.2025 222.661 46.716 221.866 47.0764C221.071 47.4369 220.213 47.6373 219.34 47.6661C220.819 47.1165 222.053 46.0589 222.823 44.6827C223.593 43.3065 223.847 41.7015 223.541 40.1549C223.235 38.6083 222.388 37.2211 221.152 36.2416C219.916 35.2621 218.371 34.7542 216.795 34.8089C217.466 34.5586 218.174 34.4186 218.89 34.3944Z" fill="#231F20"/>
<path d="M89.7088 56.6908L93.6673 64.8538L78.0156 74.9203C76.902 75.6427 75.6219 76.0685 74.2972 76.1572C72.9725 76.2459 71.6471 75.9945 70.447 75.427C68.9879 74.729 67.7953 73.5759 67.049 72.1415C66.3028 70.707 66.0432 69.0691 66.3095 67.4744L71.3881 38.4962C71.7291 36.4683 72.8346 34.6481 74.4772 33.4099C76.1199 32.1718 78.1748 31.6098 80.2193 31.8396C81.2152 31.9484 82.1799 32.2522 83.0582 32.7336C83.9366 33.2151 84.7115 33.8647 85.3387 34.6454C85.9659 35.4262 86.433 36.3227 86.7135 37.2839C86.994 38.2451 87.0823 39.2521 86.9734 40.2474C86.9648 40.3261 86.955 40.4045 86.944 40.4829C86.9056 40.7613 86.8522 41.0375 86.784 41.3102L81.2397 61.9189L89.7088 56.6908Z" fill="#4086F4"/>
<path d="M90.8212 69.3455H68.4375V91.7169H90.8212V69.3455Z" fill="#FFB8B8"/>
<path d="M69.2404 97.5613C64.754 127.454 124.498 109.781 124.498 109.781L143.23 135.608L154.197 133.615C154.197 133.615 149.262 118.11 140.45 97.3256C136.536 88.0952 92.0965 90.3507 92.0965 90.3507L91.1738 83.1131L65.751 82.6149L69.2404 97.5613Z" fill="#2F2E41"/>
<path d="M112.396 111.785L126.211 103.186C136.325 123.37 139.306 132.111 139.306 132.111L129.745 134.799L112.396 111.785Z" fill="#2F2E41"/>
<path d="M82.0276 32.9919L77.5222 27.2038L71.0954 26.9253L70.4539 32.3691L67.2695 33.8367C64.0898 45.9101 63.5987 58.5337 65.8309 70.8174C66.2576 71.219 66.5695 71.7271 66.7342 72.2894C66.899 72.8516 66.9106 73.4476 66.768 74.0159L66.5616 74.8385L66.5807 74.8686C67.2583 75.9372 67.4882 77.2294 67.2207 78.4659L65.7 81.1667C65.1542 82.138 64.8267 83.2164 64.7402 84.327C64.6537 85.4375 64.8102 86.5536 65.199 87.5976C65.5877 88.6416 66.1993 89.5884 66.9912 90.3722C67.7832 91.156 68.7365 91.758 69.7847 92.1363C79.1328 95.5229 87.8958 96.7843 94.3786 87.2813L96.4171 54.1648L82.0276 32.9919Z" fill="#4086F4"/>
<path d="M86.5681 82.3304H90.8049V49.7397H87.3592C87.1923 49.7397 87.0322 49.8058 86.9139 49.9234C86.7956 50.0411 86.7287 50.2008 86.7279 50.3676L86.5681 82.3304Z" fill="#CCCCCC"/>
<path d="M90.409 59.2928H135.908V82.503H90.409V59.2928Z" fill="white"/>
<path d="M90.4953 64.5795V59.3792H135.821V82.4167H108.342C103.611 82.4113 99.0742 80.5303 95.7284 77.1864C92.3827 73.8424 90.5006 69.3086 90.4953 64.5795Z" fill="#F2F2F2"/>
<path d="M87.2581 50.6656C87.281 50.7088 87.2988 50.7546 87.311 50.8019L88.8799 56.846L90.5817 60.0672H135.735V59.2649L133.164 56.846L130.165 51.113C130.033 50.8599 129.859 50.6308 129.651 50.4351C129.176 49.9885 128.549 49.7399 127.897 49.7399H87.8164C87.7075 49.7399 87.6006 49.768 87.5058 49.8215C87.4111 49.875 87.3318 49.952 87.2756 50.0452C87.2195 50.1383 87.1884 50.2444 87.1853 50.3531C87.1822 50.4618 87.2073 50.5694 87.2581 50.6656Z" fill="#F2F2F2"/>
<path d="M90.409 59.2928H135.908V82.503H90.409V59.2928ZM135.562 82.1578H90.7543V59.6381H135.562L135.562 82.1578Z" fill="#E6E6E6"/>
<path d="M134.23 74.2633H126.977V74.6644H134.23V74.2633Z" fill="white"/>
<path d="M134.23 72.8593H126.977V73.2604H134.23V72.8593Z" fill="white"/>
<path d="M134.23 71.4553H126.977V71.8565H134.23V71.4553Z" fill="white"/>
<path d="M112.985 66.8139C114.35 66.8139 115.456 65.7084 115.456 64.3447C115.456 62.981 114.35 61.8755 112.985 61.8755C111.621 61.8755 110.515 62.981 110.515 64.3447C110.515 65.7084 111.621 66.8139 112.985 66.8139Z" fill="#D1D3D4"/>
<path d="M131.42 66.9868C132.861 66.9868 134.029 65.8194 134.029 64.3794C134.029 62.9394 132.861 61.772 131.42 61.772C129.979 61.772 128.811 62.9394 128.811 64.3794C128.811 65.8194 129.979 66.9868 131.42 66.9868Z" fill="white"/>
<path d="M88.0417 53.7572L88.8801 56.8459H133.164L131.733 54.2752L88.0417 53.7572Z" fill="#CCCCCC"/>
<path d="M110.375 24.9817C113.441 24.9081 116.411 26.0551 118.632 28.1702C120.852 30.2853 122.141 33.1954 122.215 36.2603C122.368 42.6425 117.821 56.0698 111.245 61.2127C109.35 50.0765 99.9018 42.7345 99.09 36.8152C98.2226 30.4903 103.989 25.135 110.375 24.9817Z" fill="#D1D3D4"/>
<path d="M111.563 39.2303C113.646 39.2303 115.335 37.5425 115.335 35.4604C115.335 33.3784 113.646 31.6906 111.563 31.6906C109.48 31.6906 107.791 33.3784 107.791 35.4604C107.791 37.5425 109.48 39.2303 111.563 39.2303Z" fill="white"/>
<path opacity="0.2" d="M108.692 32.4948C108.247 32.7114 107.849 33.0135 107.52 33.384C107.191 33.7544 106.939 34.1859 106.777 34.6538C106.615 35.1218 106.548 35.6169 106.577 36.1111C106.607 36.6053 106.734 37.0888 106.95 37.5339C107.167 37.9791 107.469 38.3773 107.84 38.7057C108.211 39.0341 108.642 39.2863 109.111 39.448C109.579 39.6097 110.074 39.6776 110.569 39.6479C111.063 39.6181 111.547 39.4914 111.992 39.2748C111.104 39.3914 110.204 39.1882 109.452 38.7018C108.7 38.2154 108.146 37.4774 107.889 36.62C107.632 35.7626 107.688 34.8416 108.048 34.022C108.408 33.2024 109.048 32.5377 109.854 32.1467C109.451 32.1994 109.058 32.3169 108.692 32.4948Z" fill="#231F20"/>
<path opacity="0.2" d="M99.0742 36.8261C99.886 42.7453 109.334 50.0874 111.229 61.2236C111.848 60.7348 112.43 60.2009 112.97 59.6263C110.663 49.1121 101.818 42.0645 101.033 36.3454C100.331 31.2268 103.975 26.7437 108.774 25.1384C103.056 26.0488 98.2793 31.0299 99.0742 36.8261Z" fill="#231F20"/>
<path d="M103.655 56.3305C102.25 56.2264 100.859 56.6747 99.7788 57.5799C98.6988 58.4851 98.0148 59.7758 97.8723 61.1774C97.8479 61.4627 97.8471 61.7496 97.87 62.0351L80.6555 69.7786L88.8582 74.8692L103.948 66.7354C105.125 66.5488 106.207 65.9781 107.025 65.1123C107.844 64.2464 108.352 63.1342 108.472 61.9491C108.596 60.5859 108.173 59.2292 107.296 58.1775C106.42 57.1259 105.161 56.4654 103.797 56.3414C103.75 56.3371 103.703 56.3334 103.655 56.3305Z" fill="#FFB6B6"/>
<path opacity="0.2" d="M237.433 33.2194C241.048 43.1028 232.389 62.3108 238.616 81.2078C237.25 80.9564 235.904 80.6043 234.59 80.1544C229.516 61.8868 237.479 43.6332 233.987 34.084C230.862 25.5374 221.496 21.557 212.7 23.0091C222.353 19.7189 233.894 23.5415 237.433 33.2194Z" fill="#231F20"/>
<path d="M277.451 41.5821C284.177 41.5821 289.629 36.1325 289.629 29.41C289.629 22.6876 284.177 17.238 277.451 17.238C270.724 17.238 265.272 22.6876 265.272 29.41C265.272 36.1325 270.724 41.5821 277.451 41.5821Z" fill="#FFB8B8"/>
<path d="M292.457 28.6874C291.913 31.1535 290.932 33.5026 289.56 35.6234C289.196 36.3465 288.652 36.9639 287.98 37.4163C287.64 37.6344 287.234 37.7264 286.833 37.6763C286.432 37.6262 286.061 37.4372 285.786 37.1421L285.489 36.9009C286.07 36.543 286.589 36.093 287.025 35.5685C287.241 35.3053 287.391 34.9943 287.463 34.6615C287.535 34.3287 287.526 33.9836 287.437 33.6549C287.332 33.3308 287.105 33.06 286.804 32.8995C286.503 32.739 286.152 32.7012 285.824 32.7941C285.111 33.0738 284.677 34.1046 283.931 33.9456C283.328 33.814 283.202 33.0189 283.202 32.3939C283.224 29.126 281.644 24.4819 280.42 24.6245C279.184 24.692 277.947 24.5264 276.772 24.1365C275.596 23.7458 274.355 23.5875 273.118 23.6704C273.031 23.6814 272.943 23.6978 272.85 23.7143C272.651 23.0934 272.379 22.4987 272.038 21.9433C272.076 22.6138 272.043 23.2865 271.939 23.95C270.955 24.3554 269.938 24.6764 268.9 24.9095C267.769 25.0686 265.284 28.4461 265.169 28.1007C264.971 27.4798 264.698 26.8851 264.357 26.3296C264.396 27.0002 264.363 27.6729 264.258 28.3364C264.253 28.3638 264.253 28.3858 264.247 28.4132C263.699 27.6839 263.364 26.7957 263.551 27.4756C261.713 23.3195 262.426 20.3422 265.317 16.8386C265.881 16.0852 266.626 15.4872 267.484 15.1004C267.914 14.9118 268.385 14.837 268.852 14.8831C269.319 14.9292 269.766 15.0947 270.15 15.3636C271.33 14.2831 272.776 13.5374 274.341 13.2039C275.906 12.8703 277.531 12.961 279.049 13.4665C282.061 14.5138 284.381 15.1279 284.842 18.2861C287.333 17.8858 289.895 19.3005 291.266 21.4114C292.632 23.5279 292.912 26.2145 292.457 28.6874Z" fill="#2F2E41"/>
<path d="M77.3078 28.7409C83.8705 28.7409 89.1906 23.4237 89.1906 16.8646C89.1906 10.3055 83.8705 4.98828 77.3078 4.98828C70.7451 4.98828 65.425 10.3055 65.425 16.8646C65.425 23.4237 70.7451 28.7409 77.3078 28.7409Z" fill="#FFB8B8"/>
<path d="M71.3425 2.54792C66.3112 2.64453 62.3206 7.30891 62.4294 12.9661C58.7061 16.849 57.8042 35.9475 60.9152 41.0282C66.6063 41.6885 70.0679 27.6164 75.0588 29.6506L75.7163 26.5796L77.2067 30.5789C78.4751 31.1633 79.7339 31.8048 80.9831 32.5033C81.8808 28.3878 81.6582 24.3875 79.2453 20.9031C77.1018 17.8075 82.3183 14.1326 86.0489 14.652L85.9943 11.8089L86.9313 14.635C88.3855 15.703 89.9942 15.3164 91.6438 14.5445C94.3187 0.649685 73.6086 -3.15012 71.3425 2.54792Z" fill="#2F2E41"/>
<path d="M86.7442 66.0159L89.5306 74.6492L72.6323 82.4466C71.4291 83.0075 70.1023 83.2516 68.7781 83.1556C67.4539 83.0597 66.1762 82.6269 65.0665 81.8984C63.7185 81.0047 62.6977 79.6973 62.1579 78.1732C61.618 76.6491 61.5885 74.991 62.0737 73.4487L71.1281 45.4556C71.7474 43.4947 73.095 41.8455 74.8937 40.8472C76.6924 39.849 78.8055 39.5775 80.7983 40.0887C81.7694 40.3346 82.6825 40.7694 83.4855 41.368C84.2885 41.9666 84.9657 42.7175 85.4784 43.5777C85.991 44.4379 86.3291 45.3906 86.4734 46.3814C86.6177 47.3722 86.5653 48.3817 86.3192 49.3522C86.2998 49.4289 86.2791 49.5053 86.2573 49.5813C86.1806 49.8518 86.0894 50.1179 85.984 50.3785L77.631 70.0185L86.7442 66.0159Z" fill="#4086F4"/>
</g>
<defs>
<clipPath id="clip0_3387_7859">
<rect width="347" height="250" fill="white"/>
</clipPath>
</defs>
</svg>
