<svg width="349" height="250" viewBox="0 0 349 250" fill="none" xmlns="http://www.w3.org/2000/svg">
<g clip-path="url(#clip0_3387_8013)">
<path d="M259.704 238.432H254.026L251.325 216.543L259.705 216.543L259.704 238.432Z" fill="#A0616A"/>
<path d="M262.758 249.208H258.729L258.01 245.406L256.168 249.208H245.482C244.97 249.208 244.471 249.045 244.059 248.741C243.646 248.438 243.341 248.011 243.189 247.522C243.037 247.033 243.044 246.508 243.212 246.024C243.379 245.54 243.696 245.123 244.117 244.832L252.651 238.941V235.098L261.626 235.633L262.758 249.208Z" fill="#2F2E41"/>
<path d="M237.711 238.432H232.034L229.332 216.543L237.713 216.543L237.711 238.432Z" fill="#A0616A"/>
<path d="M240.766 249.208H236.737L236.018 245.406L234.176 249.208H223.49C222.978 249.208 222.479 249.045 222.067 248.741C221.654 248.438 221.349 248.011 221.197 247.522C221.044 247.033 221.052 246.508 221.219 246.024C221.386 245.54 221.704 245.123 222.125 244.832L230.659 238.941V235.098L239.634 235.633L240.766 249.208Z" fill="#2F2E41"/>
<path d="M305.601 249.87L188.979 250C188.845 250 188.718 249.946 188.624 249.852C188.529 249.758 188.477 249.63 188.477 249.497C188.477 249.363 188.529 249.236 188.624 249.141C188.718 249.047 188.845 248.994 188.979 248.993L305.601 248.863C305.734 248.863 305.862 248.916 305.957 249.011C306.051 249.105 306.104 249.233 306.104 249.367C306.104 249.5 306.051 249.628 305.957 249.723C305.862 249.817 305.734 249.87 305.601 249.87Z" fill="#CACACA"/>
<path d="M282.441 159.074C282.753 159.103 283.066 159.035 283.339 158.88C283.611 158.725 283.829 158.49 283.963 158.207C284.097 157.924 284.141 157.607 284.089 157.298C284.036 156.989 283.89 156.704 283.67 156.481C283.639 156.326 283.617 156.215 283.585 156.06C283.601 156.028 283.616 155.995 283.631 155.963C283.981 155.234 284.538 154.624 285.233 154.211C285.928 153.797 286.73 153.599 287.538 153.639C288.346 153.68 289.123 153.958 289.774 154.439C290.424 154.92 290.917 155.582 291.192 156.343C292.29 159.377 293.725 162.433 293.966 165.598C294.072 166.998 293.935 168.405 293.559 169.757C296.759 163.559 298.588 156.746 298.922 149.78C299.004 148.031 298.989 146.28 298.875 144.534C298.781 143.102 298.623 141.677 298.403 140.26C297.201 132.569 294.191 125.273 289.62 118.971C287.331 117.581 285.523 115.522 284.44 113.073C284.047 112.192 283.784 111.26 283.658 110.304C283.922 110.351 284.19 110.385 284.454 110.415C284.537 110.423 284.623 110.431 284.706 110.439L284.737 110.442C285.028 110.469 285.32 110.411 285.578 110.276C285.837 110.14 286.05 109.933 286.194 109.679C286.337 109.425 286.404 109.134 286.386 108.843C286.369 108.552 286.267 108.272 286.094 108.037C285.986 107.891 285.878 107.745 285.77 107.599C285.606 107.374 285.438 107.153 285.274 106.928C285.255 106.906 285.237 106.884 285.221 106.86C285.033 106.603 284.844 106.351 284.656 106.094C285.047 105.545 285.56 105.094 286.154 104.776C288.211 103.696 290.937 104.637 292.299 106.515C293.666 108.393 293.821 110.946 293.212 113.185C292.627 115.087 291.722 116.876 290.536 118.474C290.638 118.618 290.745 118.758 290.847 118.902C292.714 121.546 294.316 124.367 295.633 127.324C295.431 124.071 296.004 120.816 297.306 117.828C298.614 115.047 300.929 112.762 302.985 110.401C305.453 107.565 310.174 109.072 310.411 112.824C310.413 112.86 310.415 112.896 310.418 112.933C310.122 113.082 309.831 113.241 309.547 113.411C309.189 113.626 308.905 113.945 308.732 114.325C308.558 114.704 308.503 115.127 308.575 115.539C308.646 115.95 308.84 116.33 309.131 116.63C309.422 116.929 309.797 117.133 310.206 117.216L310.248 117.224C310.097 118.258 309.868 119.279 309.562 120.278C308.68 123.065 307.232 125.641 305.308 127.843C303.384 130.045 301.026 131.826 298.381 133.074C298.208 133.153 298.039 133.232 297.865 133.307C299.13 137.503 299.844 141.846 299.989 146.226C300.066 148.81 299.934 151.396 299.594 153.958L299.611 153.868C300.301 151.033 301.948 148.522 304.275 146.761C307.729 144.184 312.475 143.397 316.167 141.368C316.559 141.141 317.009 141.031 317.462 141.051C317.916 141.071 318.354 141.22 318.725 141.481C319.096 141.742 319.385 142.103 319.558 142.523C319.73 142.942 319.779 143.402 319.699 143.848C319.692 143.88 319.686 143.912 319.68 143.944C319.134 144.137 318.602 144.363 318.085 144.622C317.789 144.771 317.499 144.931 317.214 145.101C316.857 145.316 316.572 145.635 316.399 146.014C316.225 146.394 316.171 146.817 316.242 147.228C316.313 147.64 316.507 148.02 316.798 148.319C317.089 148.618 317.464 148.823 317.874 148.906L317.916 148.914C317.946 148.92 317.972 148.925 318.002 148.931C316.986 151.07 315.61 153.018 313.933 154.691C311.863 156.713 309.402 158.292 306.7 159.329C303.998 160.367 301.113 160.843 298.221 160.727L298.216 160.726C297.273 164.099 295.981 167.364 294.362 170.469L282.241 169.905C282.204 169.768 282.171 169.628 282.138 169.491C283.257 169.614 284.386 169.599 285.502 169.448C284.654 168.303 283.806 167.149 282.958 166.004C282.939 165.983 282.921 165.96 282.905 165.937C282.475 165.351 282.04 164.769 281.61 164.184L281.61 164.183C281.667 162.451 281.946 160.734 282.441 159.074L282.441 159.074Z" fill="#F2F2F2"/>
<path d="M204.874 49.8428C205.471 50.007 206.025 50.3 206.496 50.7013C206.968 51.1026 207.345 51.6023 207.603 52.1653C207.86 52.7282 207.991 53.3408 207.986 53.9597C207.981 54.5787 207.84 55.189 207.573 55.7476L214.047 62.9411L210.633 67.9393L201.634 57.6523C200.724 57.1425 200.034 56.317 199.693 55.3322C199.352 54.3474 199.384 53.2718 199.783 52.3092C200.183 51.3465 200.921 50.5638 201.86 50.1092C202.798 49.6546 203.87 49.5598 204.874 49.8428Z" fill="#A0616A"/>
<path d="M265.478 67.5064C264.894 66.5571 264.129 65.7322 263.225 65.0791C262.322 64.426 261.299 63.9575 260.214 63.7006C259.129 63.4437 258.004 63.4033 256.904 63.5818C255.804 63.7604 254.749 64.1543 253.801 64.741L232.512 77.92L209.546 58.4086L203.833 63.7257L229.203 96.6253L262.176 79.4443C261.407 79.8453 266.407 69.0191 265.478 67.5064Z" fill="#CCCCCC"/>
<path d="M223.302 111.327C223.304 121.837 221.234 132.243 217.212 141.953C213.189 151.663 207.291 160.485 199.856 167.917C192.421 175.348 183.595 181.242 173.88 185.263C164.165 189.284 153.753 191.352 143.238 191.35C99.0212 191.35 63.1751 155.522 63.1751 111.327C63.1674 102.731 64.5462 94.1892 67.2583 86.0312C72.583 70.0988 82.784 56.2425 96.4188 46.4217C110.054 36.6009 126.432 31.3126 143.238 31.3046C157.733 31.2995 171.957 35.2287 184.391 42.6725C196.826 50.1163 207.005 60.7955 213.841 73.5699C215.536 76.7216 217.015 79.9849 218.267 83.3372C218.44 83.8039 218.609 84.2707 218.774 84.742V84.7464C219.508 86.8181 220.154 88.9283 220.713 91.0771C222.437 97.689 223.307 104.494 223.302 111.327Z" fill="#3F3D56"/>
<path d="M215.082 146.675C213.176 150.543 210.96 154.249 208.455 157.758C206.853 157.074 205.132 158.296 203.633 159.443C202.067 160.644 200.186 161.813 198.58 160.719C196.939 159.599 196.41 156.465 196.93 153.979C197.45 151.499 198.749 149.525 200.008 147.649C201.342 145.657 202.77 143.59 204.625 142.816C206.484 142.043 208.873 143.136 209.415 145.777L210.732 145.733C209.994 144.719 210.381 142.621 211.372 142.252C212.516 141.82 213.508 143.39 214.184 144.777C214.486 145.404 214.793 146.035 215.082 146.675Z" fill="white"/>
<path d="M165.432 141.983L165.435 141.991C165.46 141.944 165.484 141.897 165.509 141.849L165.432 141.983Z" fill="#E6E6E6"/>
<path d="M209.142 138.134C209.302 138.552 209.517 138.946 209.781 139.307C210.275 139.805 210.947 139.499 211.546 139.378C212.09 139.292 212.647 139.355 213.158 139.56C213.67 139.765 214.116 140.104 214.449 140.542C214.217 139.383 213.71 138.297 212.97 137.375C212.231 136.453 211.281 135.722 210.2 135.243C208.787 134.667 207.298 134.611 205.829 134.56L205.575 134.625C206.222 136.506 208.253 136.464 209.142 138.134Z" fill="white"/>
<path d="M193.026 134.235C192.657 133.631 192.287 133.026 191.918 132.422C191.555 131.722 191.059 131.099 190.458 130.589C190.325 130.478 190.172 130.395 190.007 130.344C189.843 130.294 189.669 130.276 189.498 130.294C189.326 130.311 189.16 130.362 189.008 130.444C188.856 130.527 188.723 130.639 188.615 130.773L188.66 131.119C189.502 132.175 190.393 133.348 190.607 134.915C190.691 135.533 190.662 136.172 190.736 136.793C190.81 137.413 191.019 138.056 191.42 138.324C192.002 138.712 192.685 138.14 193.099 137.441C193.469 136.867 193.635 136.185 193.57 135.505C193.478 135.049 193.293 134.617 193.026 134.235Z" fill="white"/>
<path d="M198.822 135.022C199.002 134.503 198.741 133.908 198.686 133.334C198.66 132.594 198.856 131.862 199.25 131.234C199.642 130.641 199.938 129.992 200.129 129.308C200.21 128.996 200.195 128.668 200.087 128.365C199.965 128.09 199.669 127.965 199.499 128.182L199.862 128.416C199.372 128.329 198.867 128.353 198.387 128.488C198.113 128.592 197.868 128.762 197.674 128.981C197.479 129.2 197.34 129.463 197.269 129.748C197.209 130.191 197.111 130.628 196.976 131.055C196.759 131.5 196.339 131.648 196.075 132.04C195.895 132.386 195.804 132.772 195.811 133.163C195.817 133.553 195.921 133.936 196.112 134.276C196.443 134.833 196.97 135.247 197.59 135.438C198.034 135.597 198.618 135.606 198.822 135.022Z" fill="white"/>
<path d="M134.479 57.3369C130.881 55.3922 126.886 54.2944 122.799 54.1273C118.712 53.9602 114.641 54.7281 110.896 56.3726C107.599 57.8068 104.127 60.3798 103.027 65.026C107.475 62.4018 113.234 66.548 114.379 73.1994L114.112 73.273C113.507 77.88 114.857 82.8958 117.47 85.7524C117.813 82.7852 119.765 80.7657 121.685 79.5042C123.605 78.2427 125.729 77.3263 127.195 75.1579C128.932 72.5872 129.373 68.8302 130.063 65.403C130.754 61.9756 132.063 58.292 134.479 57.3369Z" fill="white"/>
<path d="M109.576 96.5409C108.344 98.3902 106.698 99.5506 105.222 100.995C103.749 102.445 102.348 104.401 102.055 106.913C101.868 108.522 102.157 110.158 102.117 111.785C102.077 113.412 101.534 115.244 100.427 115.649C98.6787 116.28 97.3443 113.034 95.5473 112.808C94.1195 112.63 92.8341 114.875 93.2477 116.822C93.6614 118.769 95.6052 119.632 96.7216 118.36C97.7313 120.054 97.0196 123.126 95.5029 123.646C95.3427 124.713 95.1826 125.776 95.0269 126.843C91.1928 124.162 87.3186 121.437 84.0583 117.511C80.4322 113.182 78.1831 107.869 77.5998 102.254C77.1773 97.7412 77.8044 92.5798 75.7317 89.1077C74.0726 86.3291 71.2258 85.7156 68.6638 85.889C68.1968 85.9201 67.7253 85.9734 67.2583 86.0312C68.7692 81.4955 70.6882 77.106 72.9917 72.9164C73.513 72.6927 73.9974 72.3915 74.4284 72.0228C76.8125 70 77.8711 65.9055 79.806 63.0736C79.9306 62.8913 80.0595 62.7134 80.193 62.5401C82.1723 59.9571 84.8233 58.6278 87.3853 57.3919C93.0565 54.6401 98.8922 51.8526 104.879 52.2349L103.176 52.3994C101.187 57.9654 99.1977 63.5315 97.2064 69.0975C96.904 69.9511 96.5985 70.8061 96.2902 71.6627C95.1604 74.828 93.995 78.1979 94.1685 81.7411C94.2708 83.8394 95.0002 86.0801 96.388 86.8003C97.6823 87.4672 99.0968 86.6492 100.347 85.84C100.876 85.5022 101.401 85.1643 101.93 84.8219C103.829 83.5994 105.933 82.3457 107.939 83.1637C109.776 83.9106 111.133 86.4046 111.391 89.0943C111.628 91.7089 110.989 94.3279 109.576 96.5409Z" fill="white"/>
<path d="M120.872 134.542C115.325 131.128 109.778 127.714 104.231 124.301L104.325 124.058C100.876 125.371 99.4445 131.499 100.014 136.51C100.584 141.521 102.517 146 103.493 150.883C104.81 157.564 104.313 164.477 102.054 170.901C109.348 162.721 115.804 153.831 121.323 144.363C122.094 143.17 122.682 141.868 123.066 140.5C123.418 139.046 123.364 137.297 122.658 136.13C122.204 135.46 121.59 134.914 120.872 134.542Z" fill="white"/>
<path d="M98.9799 72.4371C98.3909 73.7607 98.1643 75.5258 98.6988 76.8954C99.2447 78.2941 100.399 78.9263 101.461 79.4526L104.526 80.9711C105.546 81.4762 106.645 81.9865 107.684 81.5708C108.938 81.0695 109.808 79.105 109.583 77.2812C109.343 75.3404 108.119 74.0055 106.987 72.8686C105.403 71.2777 103.819 69.6868 102.235 68.0959L101.342 69.1888C100.377 70.1302 99.5779 71.2286 98.9799 72.4371Z" fill="white"/>
<path d="M206.871 93.1844C208.25 93.5089 209.629 93.8334 211.008 94.158C210.768 98.8127 208.459 103.121 205.363 104.681C204.073 105.33 202.637 105.57 201.569 106.784C200.604 107.886 200.115 109.602 199.665 111.243C198.878 114.106 198.091 116.969 197.304 119.832C196.458 122.917 195.373 126.345 193.176 127.456C191.29 128.412 189.133 127.243 187.683 125.282C186.233 123.322 185.347 120.686 184.489 118.116C184.542 120.917 183.239 123.664 181.393 124.638C179.543 125.611 177.292 124.731 176.056 122.557C175.166 120.997 174.797 118.938 173.925 117.356C173.053 115.773 171.225 114.866 170.273 116.351C169.646 117.338 169.726 118.849 169.415 120.103C168.93 122.05 167.462 123.273 166.008 123.38C164.558 123.486 163.143 122.651 161.929 121.517C159.425 119.17 157.579 115.444 156.863 111.305C156.547 109.46 156.458 107.451 157.005 105.721C157.552 103.992 158.873 102.658 160.185 102.987C161.048 101.164 159.345 98.746 157.81 98.9593C156.271 99.1727 155.066 100.822 153.802 102.089C152.544 103.356 150.782 104.276 149.515 103.018C149.524 104.187 148.572 104.961 147.749 104.863C146.93 104.77 146.201 104.112 145.449 103.645C142.545 101.836 138.857 103.036 136.793 106.459C138.083 100.973 139.974 94.6781 143.937 93.3888C145.556 92.8598 147.322 93.2955 148.852 92.3796C151.561 90.757 152.108 84.6264 149.768 82.0967C150.066 84.4885 150.008 87.2804 148.745 88.9165C147.482 90.5525 144.831 89.4855 144.991 87.067C144.626 88.7342 142.812 88.9876 141.975 87.7072C141.135 86.4269 141.206 84.333 141.802 82.8036C142.398 81.2742 143.412 80.1762 144.395 79.1225C146.508 76.8597 148.652 74.5701 151.098 73.1475C153.549 71.7249 156.378 71.2447 158.833 72.6585C160.128 73.4053 161.266 74.6502 162.587 75.3081C163.908 75.9705 165.585 75.8861 166.461 74.3389C167.444 72.614 166.982 70.0533 167.347 67.8971C168 64.0871 171.812 62.3044 173.925 64.8206C172.346 64.4161 170.714 66.2833 170.518 68.5462C170.318 70.8091 171.461 73.0942 172.991 73.7788C175.562 74.9169 178.079 72.0538 180.023 69.4042C182.052 66.6301 184.083 63.8574 186.117 61.0863C186.442 60.6145 186.806 60.1712 187.207 59.7615C187.844 59.1408 188.693 58.7854 189.583 58.7672C190.472 58.7491 191.335 59.0695 191.997 59.6637C194.052 61.3397 195.017 64.7763 196.703 67.1414C199.15 70.5779 202.81 71.4137 206.217 72.0805C208.757 72.574 211.298 73.0704 213.841 73.5698C215.536 76.7216 217.015 79.9849 218.267 83.3371C213.961 85.1643 209.989 88.5831 206.871 93.1844Z" fill="white"/>
<path d="M164.657 127.897C161.827 128.075 159.586 124.593 158.096 121.167C156.607 117.742 155.248 113.824 152.694 112.081C151.235 111.084 149.572 110.948 147.989 110.465C146.406 109.982 144.75 108.983 143.994 106.949L142.198 106.224C139.828 107.556 137.425 108.913 135.383 111.081C133.091 113.514 131.664 116.632 131.321 119.956C130.979 123.547 132.245 127.551 134.611 128.901C136.48 129.967 138.657 129.295 140.551 130.271C142.917 131.49 144.322 135.032 144.854 138.529C145.385 142.026 145.251 145.661 145.631 149.198C146.011 152.734 147.06 156.415 149.23 158.227C151.945 160.495 155.929 158.611 157.148 154.482C157.745 152.457 157.725 150.171 158.172 148.069C158.959 144.367 161.083 141.62 162.767 138.583C164.452 135.546 165.778 131.421 164.657 127.897Z" fill="white"/>
<path d="M163.866 145.012C163.524 145.632 163.231 146.276 162.988 146.941C162.665 148.016 162.452 149.122 162.351 150.24C162.271 150.876 162.247 151.689 162.645 151.998C162.76 152.074 162.898 152.106 163.034 152.088C163.17 152.069 163.295 152.002 163.385 151.898C163.607 151.664 163.788 151.395 163.921 151.101C164.705 149.753 165.313 148.31 165.732 146.807C166.113 145.225 166.11 143.361 165.435 141.991C164.912 142.998 164.389 144.005 163.866 145.012Z" fill="white"/>
<path d="M216.14 180.639C217.227 182.268 229.048 227.05 229.048 227.05L239.529 228.244L238.285 216.977L236.383 197.038L233.439 183.729C233.439 183.729 243.837 160.075 244.495 158.191L244.962 156.839L248.211 186.308C248.597 187.36 248.765 188.479 248.705 189.599C248.607 191.439 250.454 219.133 250.454 219.133L251.342 229.064L260.322 230.311L263.966 213.127C267.008 207.545 265.264 187.709 264.02 185.863C262.776 184.016 263.27 171.158 263.27 171.158C264.859 170.599 274.333 138.31 269.594 138.501C269.898 136.78 270.137 135.243 270.137 135.243L261.912 128.613L241.327 123.264L236.134 120.772C236.134 120.772 226.858 137.915 226.951 138.767C227.078 139.847 226.831 140.938 226.25 141.857L216.885 173.183C216.885 173.183 215.043 178.994 216.14 180.639Z" fill="#2F2E41"/>
<path d="M209.468 111.148C209.575 110.448 209.681 109.747 209.788 109.047C209.962 108.278 209.983 107.482 209.852 106.705C209.822 106.535 209.759 106.373 209.665 106.228C209.572 106.083 209.45 105.958 209.308 105.861C209.165 105.764 209.005 105.696 208.836 105.661C208.667 105.627 208.493 105.626 208.324 105.66L208.136 105.953C208.099 107.303 208.025 108.774 207.179 110.11C206.845 110.637 206.411 111.108 206.068 111.63C205.724 112.152 205.47 112.779 205.605 113.242C205.799 113.914 206.691 113.915 207.458 113.647C208.111 113.446 208.677 113.031 209.066 112.47C209.289 112.061 209.426 111.611 209.468 111.148Z" fill="#E6E6E6"/>
<path d="M89.4722 108.021C91.3429 108.021 92.8593 106.506 92.8593 104.636C92.8593 102.766 91.3429 101.25 89.4722 101.25C87.6015 101.25 86.0851 102.766 86.0851 104.636C86.0851 106.506 87.6015 108.021 89.4722 108.021Z" fill="#4086F4"/>
<path d="M151.242 100.011C153.733 100.011 155.752 97.9928 155.752 95.5031C155.752 93.0133 153.733 90.995 151.242 90.995C148.751 90.995 146.732 93.0133 146.732 95.5031C146.732 97.9928 148.751 100.011 151.242 100.011Z" fill="#4086F4"/>
<path d="M136.693 91.517C136.957 91.7598 137.204 92.0211 137.43 92.2989C137.665 92.7034 137.785 93.1642 137.777 93.6316C137.769 94.0991 137.633 94.5556 137.385 94.9518C137.726 94.9324 138.059 94.8425 138.363 94.6879C138.668 94.5333 138.937 94.3173 139.153 94.0535C139.67 93.4655 140.124 92.8258 140.509 92.1446C140.798 91.6742 141.105 91.0381 140.909 90.4794C140.775 90.098 140.459 89.9354 140.238 89.6486C139.886 89.194 139.799 88.472 139.617 87.8481C139.225 86.5006 138.284 85.5097 137.263 85.368L137.405 85.3952C136.978 85.5412 136.68 86.2182 136.775 86.8274C136.861 87.3822 137.217 87.8428 137.182 88.4086C137.131 89.2222 136.317 89.604 136.267 90.4177C136.259 90.8259 136.412 91.2208 136.693 91.517Z" fill="white"/>
<path d="M131.845 77.6907C131.849 77.6895 131.853 77.6893 131.857 77.6882C131.944 77.6089 132.025 77.523 132.099 77.4312L131.845 77.6907Z" fill="#E6E6E6"/>
<path d="M132.693 81.5098C133.319 81.1076 133.669 79.9954 133.462 79.0646C133.256 78.1394 132.528 77.5174 131.857 77.6883C131.663 77.8856 131.421 78.0301 131.155 78.1084C130.889 78.1867 130.607 78.196 130.337 78.1357C129.922 78.0289 129.466 77.754 129.107 78.0664C128.901 78.2998 128.757 78.5809 128.687 78.8843C128.554 79.293 128.421 79.7016 128.288 80.1103C128.225 80.2566 128.208 80.4188 128.241 80.5749C128.266 80.6374 128.307 80.6923 128.36 80.7343C128.413 80.7763 128.476 80.8041 128.543 80.8148C129.342 81.0503 130.141 81.2858 130.94 81.5212C131.523 81.6928 132.151 81.8582 132.693 81.5098Z" fill="white"/>
<path d="M267.857 68.5417L264.582 61.5923L253.436 62.0204L249.801 69.2502C249.801 69.2502 239.411 81.6538 239.074 85.6869C238.651 90.7594 242.167 115.62 238.651 114.009C238.651 114.009 230.364 123.731 235.268 123.731C240.172 123.731 262.353 137.648 263.809 139.213C265.264 140.779 271.762 141.793 271.217 138.526C270.672 135.258 267.857 117.587 267.857 117.587L275.478 89.8012C277.671 83.8022 278.353 77.0731 273.396 73.0434L267.857 68.5417Z" fill="#CCCCCC"/>
<path d="M148.762 64.3154C149.011 64.5583 149.325 64.7233 149.667 64.7898C150.008 64.8564 150.361 64.8217 150.683 64.6901C151.35 64.3988 151.961 63.9952 152.491 63.4968C152.929 63.1725 153.301 62.7669 153.586 62.3021C153.743 62.0243 153.844 61.7183 153.883 61.4016C153.921 61.0848 153.896 60.7636 153.81 60.4563C153.563 59.7328 152.935 59.4902 152.381 59.326C151.494 59.0631 150.607 58.8001 149.719 58.5372L150.361 57.9592C149.701 57.605 148.971 58.2623 148.558 59.076C148.293 59.6073 148.109 60.1749 148.01 60.7602C147.79 62.0374 148.006 63.5584 148.762 64.3154Z" fill="#E6E6E6"/>
<path d="M164.423 59.0604C164.673 59.3359 165.019 59.506 165.39 59.5362C165.761 59.5663 166.129 59.4543 166.421 59.2228C166.671 59.0346 166.88 58.7957 167.032 58.5217C167.184 58.2477 167.277 57.9448 167.304 57.6326C167.367 56.9351 167.022 56.16 166.529 56.0998L166.642 55.4468C165.693 55.2755 164.524 55.2412 164.016 56.3933C163.844 56.8346 163.792 57.3132 163.863 57.7813C163.935 58.2493 164.128 58.6904 164.423 59.0604Z" fill="#E6E6E6"/>
<path d="M97.7999 51.1928C93.6209 50.7217 89.4259 51.9291 86.1377 54.5494C82.8494 57.1697 80.7372 60.9882 80.2659 65.165C79.2842 73.8627 83.8688 92.7501 92.2274 100.569C96.1631 85.589 109.954 76.7038 111.779 68.7179C113.729 60.1848 106.502 52.1739 97.7999 51.1928Z" fill="#4086F4"/>
<path d="M94.9096 70.5288C97.7657 70.5288 100.081 68.2146 100.081 65.36C100.081 62.5054 97.7657 60.1913 94.9096 60.1913C92.0536 60.1913 89.7383 62.5054 89.7383 65.36C89.7383 68.2146 92.0536 70.5288 94.9096 70.5288Z" fill="white"/>
<path opacity="0.2" d="M99.1884 61.6569C99.7705 62.0065 100.278 62.4673 100.682 63.0129C101.086 63.5585 101.378 64.1783 101.543 64.8369C101.707 65.4955 101.74 66.18 101.639 66.8513C101.539 67.5226 101.307 68.1676 100.957 68.7493C100.608 69.3311 100.147 69.8384 99.6008 70.2421C99.0549 70.6458 98.4348 70.9381 97.7759 71.1023C97.1169 71.2665 96.4321 71.2994 95.7605 71.199C95.0888 71.0987 94.4435 70.8671 93.8615 70.5175C95.0601 70.784 96.3144 70.6155 97.4001 70.042C98.4857 69.4686 99.3317 68.5277 99.7867 67.3878C100.242 66.2478 100.276 64.9833 99.8833 63.8204C99.4907 62.6576 98.6968 61.6723 97.6438 61.041C98.1886 61.1617 98.7102 61.3697 99.1884 61.6569Z" fill="#231F20"/>
<path opacity="0.2" d="M111.799 68.7346C109.975 76.7205 96.1833 85.6057 92.2477 100.585C91.4616 99.8431 90.7315 99.0436 90.0634 98.1936C94.4859 84.113 107.419 75.5572 109.182 67.8414C110.76 60.9356 106.327 54.3726 99.9667 51.6002C107.666 53.5347 113.586 60.9148 111.799 68.7346Z" fill="#231F20"/>
<path d="M226.571 48.0876C225.08 47.4961 223.488 47.2039 221.884 47.2277C220.28 47.2514 218.696 47.5907 217.224 48.2261C215.751 48.8615 214.418 49.7806 213.301 50.9309C212.184 52.0812 211.304 53.4402 210.712 54.9303C208.223 61.197 207.811 76.1624 212.442 83.6629C218.398 73.3236 230.446 69.5058 233.417 63.9386C236.593 57.9899 232.841 50.5752 226.571 48.0876Z" fill="#4086F4"/>
<path d="M209.572 88.7371C211.013 88.7371 212.181 87.5696 212.181 86.1294C212.181 84.6891 211.013 83.5216 209.572 83.5216C208.131 83.5216 206.963 84.6891 206.963 86.1294C206.963 87.5696 208.131 88.7371 209.572 88.7371Z" fill="#4086F4"/>
<path d="M208.396 85.2313C209.002 85.1064 209.629 85.1159 210.232 85.2591C210.834 85.4024 211.398 85.6759 211.883 86.0605C212.368 86.445 212.763 86.9312 213.04 87.4849C213.317 88.0385 213.469 88.6461 213.486 89.2648L222.523 92.732L221.754 98.735L209.061 93.6595C208.019 93.6184 207.028 93.1968 206.277 92.4745C205.525 91.7522 205.065 90.7795 204.983 89.7406C204.901 88.7017 205.203 87.6688 205.832 86.8378C206.461 86.0067 207.373 85.4351 208.396 85.2313L208.396 85.2313Z" fill="#A0616A"/>
<path d="M221.557 62.0157C223.757 62.0157 225.541 60.2331 225.541 58.0342C225.541 55.8353 223.757 54.0527 221.557 54.0527C219.357 54.0527 217.574 55.8353 217.574 58.0342C217.574 60.2331 219.357 62.0157 221.557 62.0157Z" fill="white"/>
<path opacity="0.2" d="M225.487 56.1462C226.217 56.9088 226.614 57.9297 226.591 58.9847C226.568 60.0397 226.127 61.0425 225.365 61.7726C224.602 62.5028 223.581 62.9007 222.526 62.8788C221.47 62.8569 220.466 62.4171 219.735 61.656C220.572 62.0963 221.539 62.2244 222.462 62.0176C223.385 61.8107 224.204 61.2823 224.772 60.5269C225.341 59.7715 225.622 58.8385 225.566 57.8948C225.509 56.9511 225.118 56.0584 224.463 55.3763C224.844 55.5761 225.189 55.8361 225.487 56.1462Z" fill="#231F20"/>
<path opacity="0.2" d="M233.429 63.9552C230.457 69.5224 218.409 73.3402 212.454 83.6794C212.02 82.9688 211.639 82.227 211.314 81.4602C217.449 71.8877 228.793 68.1413 231.664 62.7624C234.234 57.9482 232.266 52.1743 228.099 48.8284C233.431 51.822 236.339 58.5038 233.429 63.9552Z" fill="#231F20"/>
<path d="M271.541 72.8608C270.59 72.2802 269.533 71.893 268.432 71.7216C267.33 71.5501 266.205 71.5977 265.122 71.8615C264.039 72.1254 263.019 72.6004 262.12 73.2593C261.221 73.9182 260.461 74.748 259.883 75.7011L246.912 97.1111L217.583 90.1627L214.911 97.4944L252.469 115.276L271.491 84.9942C274.339 80.994 275.734 75.419 271.541 72.8608Z" fill="#CCCCCC"/>
<path opacity="0.2" d="M260.072 89.7659L252.487 98.5494L239.953 94.8503L253.617 101.144L260.072 89.7659Z" fill="black"/>
<path d="M162.331 24.3373C156.766 23.7099 151.18 25.3177 146.802 28.8069C142.423 32.2961 139.61 37.381 138.983 42.9429C137.675 54.525 143.78 79.6758 154.911 90.0872C160.152 70.1398 178.516 58.3082 180.946 47.6741C183.543 36.3111 173.919 25.6438 162.331 24.3373Z" fill="#4086F4"/>
<path d="M158.482 50.0854C162.286 50.0854 165.369 47.0039 165.369 43.2026C165.369 39.4014 162.286 36.3198 158.482 36.3198C154.679 36.3198 151.596 39.4014 151.596 43.2026C151.596 47.0039 154.679 50.0854 158.482 50.0854Z" fill="white"/>
<path opacity="0.2" d="M164.18 38.2715C164.955 38.7371 165.631 39.3506 166.169 40.0772C166.707 40.8038 167.096 41.6291 167.315 42.5061C167.534 43.3831 167.578 44.2946 167.444 45.1885C167.31 46.0824 167.002 46.9413 166.536 47.716C166.07 48.4907 165.456 49.1662 164.729 49.7038C164.002 50.2414 163.177 50.6306 162.299 50.8493C160.527 51.2908 158.652 51.0107 157.087 50.0705C158.683 50.4254 160.353 50.201 161.799 49.4374C163.244 48.6738 164.371 47.4209 164.977 45.9029C165.583 44.3849 165.628 42.701 165.106 41.1525C164.583 39.604 163.526 38.2921 162.123 37.4514C162.849 37.6121 163.543 37.889 164.18 38.2715Z" fill="#231F20"/>
<path d="M272.026 46.6222C272.027 48.6857 271.521 50.7179 270.552 52.5403C269.584 54.3627 268.182 55.9197 266.471 57.0745C264.76 58.2293 262.792 58.9466 260.739 59.1635C258.686 59.3804 256.611 59.0903 254.696 58.3185C252.781 57.5467 251.085 56.317 249.757 54.7372C248.429 53.1574 247.509 51.2759 247.078 49.2578C246.647 47.2397 246.718 45.1467 247.286 43.1626C247.853 41.1785 248.899 39.364 250.332 37.8782L250.392 37.8178C250.493 37.7119 250.594 37.606 250.7 37.5051C250.701 37.5051 250.701 37.505 250.702 37.5047C250.703 37.5045 250.703 37.5041 250.704 37.5036C250.704 37.5032 250.704 37.5026 250.705 37.502C250.705 37.5014 250.705 37.5007 250.705 37.5C250.836 37.379 250.967 37.258 251.104 37.142C252.926 35.545 255.171 34.5068 257.568 34.1517C259.966 33.7967 262.415 34.1398 264.623 35.1401C266.83 36.1404 268.703 37.7554 270.016 39.7917C271.329 41.8281 272.026 44.1996 272.026 46.6221V46.6222Z" fill="#2F2E41"/>
<path d="M256.306 60.1101C262.147 60.1101 266.882 55.3772 266.882 49.539C266.882 43.7007 262.147 38.9679 256.306 38.9679C250.464 38.9679 245.729 43.7007 245.729 49.539C245.729 55.3772 250.464 60.1101 256.306 60.1101Z" fill="#9E616A"/>
<path d="M267.537 52.5536L265.784 52.2442C264.805 52.0663 263.904 51.5939 263.201 50.89C262.497 50.1862 262.026 49.2845 261.849 48.3056L260.139 51.1699L260.065 51.1946C255.991 52.5466 251.752 52.1422 247.109 49.9601C245.781 49.3308 244.493 48.6211 243.252 47.835L243.161 47.7778L243.153 47.6703C242.917 44.2314 243.689 41.3585 245.328 39.5808C245.957 38.9119 246.721 38.3835 247.569 38.0303C248.417 37.677 249.33 37.5068 250.248 37.5308C250.313 37.5137 250.373 37.4806 250.423 37.4344C250.446 37.4171 250.47 37.3999 250.493 37.3836V37.3659L250.615 37.3087C250.876 37.1861 251.142 37.0687 251.408 36.9613C253.501 36.1516 255.78 35.9485 257.983 36.3753C260.186 36.8021 262.224 37.8415 263.862 39.3742C267.12 42.4828 268.614 47.6996 267.581 52.3561L267.537 52.5536Z" fill="#2F2E41"/>
<path d="M289.845 61.5602C286.246 59.7035 290.874 52.9646 289.944 49.0246C289.014 45.0846 282.316 43.8173 281.889 39.7916C281.463 35.7659 280.459 31.6138 277.801 28.5591C276.103 26.6071 273.6 25.1661 271.024 25.4106C270.152 25.4933 269.308 25.7629 268.55 26.2009C267.792 26.6389 267.137 27.235 266.63 27.9488C266.123 28.6625 265.776 29.4771 265.613 30.3369C265.449 31.1968 265.473 32.0817 265.683 32.9315C264.949 31.8926 263.051 32.1178 262.581 33.2995C262.163 34.3501 263.086 35.6226 264.172 35.7156C265.593 37.4698 267.221 39.3316 269.447 39.6854C269.802 39.7669 270.171 39.7667 270.525 39.6848C270.88 39.603 271.211 39.4417 271.495 39.2131C272.018 38.7103 272.059 37.7051 271.438 37.3294C274.236 38.4404 275.876 41.4642 276.292 44.4448C276.707 47.4253 276.132 50.441 275.754 53.4265C275.375 56.4119 275.212 59.5524 276.383 62.3247C277.767 65.6003 280.953 67.9479 284.43 68.7008C287.906 69.4537 291.609 68.7179 294.756 67.0601C297.903 65.4021 300.527 62.8712 302.671 60.0338C298.978 62.6547 293.869 63.6365 289.845 61.5602Z" fill="#2F2E41"/>
<path d="M267.087 52.2598C267.087 52.2598 263.954 40.5711 250.523 37.8732C250.508 37.8682 250.458 37.848 250.392 37.8178C250.352 37.7926 250.301 37.7674 250.251 37.7422C250.402 37.6564 250.549 37.5808 250.7 37.5051C250.701 37.5051 250.701 37.505 250.702 37.5048C250.703 37.5045 250.703 37.5041 250.704 37.5037C250.704 37.5032 250.704 37.5026 250.705 37.502C250.705 37.5014 250.705 37.5007 250.705 37.5001C250.836 37.3791 250.967 37.258 251.104 37.1421L251.487 37.1572C251.487 37.1572 264.963 35.0242 267.087 52.2598Z" fill="#FD6584"/>
<path opacity="0.2" d="M180.973 47.6962C178.543 58.3303 160.178 70.162 154.938 90.1093C153.891 89.1208 152.919 88.0562 152.029 86.9243C157.918 68.1744 175.14 56.7812 177.488 46.5068C179.589 37.3109 173.686 28.5715 165.217 24.8798C175.469 27.4558 183.353 37.2832 180.973 47.6962Z" fill="#231F20"/>
<path d="M38.2088 54.311C37.8992 54.3591 37.5823 54.311 37.3009 54.173C37.0196 54.0351 36.7876 53.8141 36.6361 53.5399C36.4847 53.2657 36.4213 52.9517 36.4544 52.6402C36.4875 52.3288 36.6156 52.0351 36.8214 51.7989C36.8431 51.6426 36.8587 51.5303 36.8805 51.374C36.8631 51.3423 36.8458 51.3107 36.8283 51.2792C36.4343 50.5732 35.8403 49.9994 35.1211 49.6297C34.4018 49.26 33.5893 49.111 32.7856 49.2014C31.9818 49.2918 31.2228 49.6176 30.6037 50.1378C29.9846 50.658 29.5331 51.3494 29.306 52.1252C28.3976 55.2219 27.1535 58.3602 27.1086 61.5349C27.0894 62.9381 27.3138 64.334 27.772 65.6606C24.1952 59.672 21.9486 52.9848 21.1844 46.0523C20.9944 44.3125 20.902 42.5635 20.9074 40.8133C20.9131 39.3784 20.9819 37.9469 21.1138 36.5187C21.8381 28.7686 24.3915 21.3008 28.5641 14.7285C30.7635 13.1992 32.4409 11.0329 33.3705 8.52141C33.7079 7.61826 33.9128 6.67104 33.9788 5.70921C33.7188 5.77245 33.4531 5.8232 33.1912 5.86914C33.1095 5.88237 33.0235 5.89611 32.9418 5.90938L32.911 5.91414C32.6225 5.95865 32.3274 5.91888 32.061 5.79962C31.7946 5.68035 31.5684 5.48668 31.4096 5.24191C31.2508 4.99714 31.1662 4.71171 31.1659 4.41999C31.1657 4.12826 31.2498 3.84268 31.4081 3.59762C31.5068 3.44516 31.6055 3.29277 31.7043 3.14044C31.8537 2.90554 32.0079 2.67451 32.1574 2.43965C32.1751 2.41695 32.1915 2.39325 32.2065 2.36868C32.3787 2.10072 32.5511 1.8371 32.7233 1.56914C32.2989 1.0454 31.7593 0.626712 31.1464 0.345711C29.0261 -0.604415 26.3642 0.502665 25.1204 2.4613C23.8724 4.42037 23.8752 6.97816 24.6217 9.17516C25.3234 11.0374 26.3372 12.7667 27.6195 14.2889C27.5264 14.439 27.4286 14.5852 27.3355 14.7352C25.6359 17.4896 24.2104 20.4039 23.0796 23.4362C23.0802 20.1768 22.3065 16.9638 20.8223 14.0615C19.3449 11.367 16.8927 9.22893 14.6956 6.9995C12.0565 4.32162 7.43771 6.11765 7.43315 9.87648C7.43311 9.91288 7.43316 9.94925 7.4333 9.9856C7.73782 10.1162 8.03737 10.2574 8.33194 10.4092C8.70225 10.6022 9.00559 10.9025 9.20222 11.2707C9.39885 11.639 9.47959 12.058 9.43387 12.4729C9.38816 12.8878 9.21811 13.2793 8.94602 13.5959C8.67392 13.9126 8.31247 14.1397 7.90901 14.2476L7.8677 14.2586C8.08239 15.2811 8.37453 16.2857 8.7416 17.2639C9.79364 19.9917 11.3982 22.4728 13.4545 24.5518C15.5109 26.6307 17.9748 28.2627 20.6918 29.3453C20.8699 29.4133 21.0436 29.4819 21.2211 29.5457C20.2177 33.812 19.7736 38.1906 19.8999 42.5714C19.9827 45.155 20.2744 47.7277 20.7721 50.2643L20.7493 50.175C19.886 47.388 18.0868 44.9842 15.6556 43.3695C12.049 41.0111 7.26262 40.5186 3.45311 38.722C3.04701 38.5196 2.5915 38.4376 2.14029 38.4855C1.68908 38.5335 1.261 38.7094 0.90653 38.9925C0.552064 39.2757 0.285999 39.6542 0.139717 40.0835C-0.00656473 40.5128 -0.0269642 40.975 0.0809271 41.4155C0.0891741 41.4468 0.0975075 41.4781 0.105921 41.5093C0.661945 41.6682 1.20752 41.8615 1.7395 42.0882C2.04402 42.2188 2.34357 42.36 2.63813 42.5117C3.00844 42.7048 3.31178 43.0051 3.50841 43.3733C3.70504 43.7416 3.78578 44.1606 3.74007 44.5755C3.69435 44.9904 3.52431 45.3819 3.25221 45.6985C2.98012 46.0152 2.61866 46.2424 2.2152 46.3502L2.17386 46.3612C2.14407 46.3688 2.11859 46.376 2.08885 46.3836C3.23486 48.4558 4.72919 50.3154 6.50638 51.8809C8.69711 53.7715 11.2511 55.1951 14.0119 56.0642C16.7726 56.9333 19.6818 57.2296 22.5612 56.935L22.5655 56.9346C23.7158 60.2421 25.2068 63.4212 27.0147 66.4207L39.078 65.1092C39.1067 64.9705 39.1305 64.828 39.1549 64.6898C38.0459 64.8814 36.9176 64.9365 35.7953 64.8539C36.5708 63.6589 37.3454 62.4553 38.121 61.2603C38.1388 61.2376 38.1552 61.2139 38.1702 61.1894C38.563 60.5782 38.9607 59.9709 39.3535 59.3598L39.3537 59.359C39.1905 57.6343 38.8058 55.9378 38.2091 54.3112L38.2088 54.311Z" fill="#F2F2F2"/>
<path d="M310.72 171.652C305.259 171.652 299.274 171.445 292.764 171.033C259.093 168.896 215.479 161.466 169.956 150.112C124.433 138.758 82.4397 124.836 51.7119 110.912C36.7434 104.129 25.2552 97.7078 17.5667 91.8274C9.42661 85.6021 5.86602 80.1758 6.98343 75.6998C9.16066 66.9797 28.4389 65.0719 44.228 65.0071L44.2334 66.2752C22.5508 66.3642 9.75911 69.8204 8.21464 76.0069C6.24725 83.8863 22.2924 96.1875 52.2358 109.757C82.8961 123.651 124.812 137.546 170.263 148.882C215.714 160.217 259.248 167.635 292.844 169.767C325.654 171.85 345.602 168.525 347.569 160.646C349.202 154.104 338.434 144.466 317.249 133.508L317.832 132.382C333.226 140.344 351.094 151.764 348.8 160.953C347.682 165.429 341.988 168.547 331.876 170.22C326.112 171.174 319.032 171.652 310.72 171.652Z" fill="#4086F4"/>
</g>
<defs>
<clipPath id="clip0_3387_8013">
<rect width="349" height="250" fill="white"/>
</clipPath>
</defs>
</svg>
