<svg width="44" height="44" viewBox="0 0 44 44" fill="none" xmlns="http://www.w3.org/2000/svg">
<rect width="44" height="44" rx="12.0604" fill="url(#paint0_linear_3315_36163)"/>
<path d="M18.2853 25.9591V23.9508C18.2853 23.7785 18.2525 23.6146 18.1868 23.4565C18.1182 23.3011 18.0137 23.1599 17.8735 23.0384C17.7332 22.917 17.5542 22.8181 17.3334 22.7475C17.1156 22.6769 16.853 22.6401 16.5486 22.6401C16.2562 22.6401 15.9607 22.6882 15.6713 22.7842C15.3789 22.8802 15.1222 23.0271 14.9014 23.2192L15.3729 23.6853C15.4415 23.6344 15.5161 23.5836 15.5907 23.5271C15.6653 23.4706 15.7489 23.4226 15.8444 23.383C15.9399 23.3407 16.0443 23.3068 16.1577 23.2785C16.2711 23.2503 16.4054 23.239 16.5575 23.239C16.7276 23.239 16.8739 23.2644 16.9962 23.3096C17.1215 23.3576 17.223 23.4226 17.3035 23.5017C17.3841 23.5836 17.4468 23.6711 17.4856 23.7728C17.5273 23.8717 17.5482 23.9706 17.5482 24.0722V24.2389H16.9693C16.653 24.2389 16.3576 24.2643 16.0801 24.3095C15.8026 24.3547 15.5609 24.4338 15.352 24.5411C15.1431 24.6485 14.979 24.7897 14.8626 24.9592C14.7403 25.1315 14.6836 25.3433 14.6836 25.6004C14.6836 25.7953 14.7224 25.9619 14.797 26.1116C14.8746 26.2585 14.976 26.3828 15.1103 26.4817C15.2416 26.5805 15.3968 26.6568 15.5698 26.7048C15.7459 26.7528 15.9279 26.7783 16.1219 26.7783C16.4382 26.7783 16.7157 26.7246 16.9544 26.6201C17.1931 26.5127 17.402 26.3348 17.5781 26.0806H17.596C17.596 26.2783 17.6079 26.4789 17.6228 26.6766H18.3241C18.3092 26.5721 18.3032 26.4619 18.2972 26.3461C18.2883 26.2246 18.2853 26.0947 18.2853 25.9591ZM17.5572 25.027C17.5572 25.1597 17.5363 25.2953 17.4945 25.4309C17.4527 25.5665 17.3871 25.6908 17.2916 25.8009C17.1961 25.9139 17.0738 26.0015 16.9216 26.0721C16.7694 26.1399 16.5844 26.1766 16.3696 26.1766C16.092 26.1766 15.8772 26.1258 15.7161 26.0269C15.5549 25.928 15.4744 25.7642 15.4744 25.5382C15.4744 25.3829 15.5251 25.2558 15.6265 25.1569C15.725 25.058 15.8593 24.9818 16.0204 24.9253C16.1816 24.8688 16.3606 24.8349 16.5575 24.8123C16.7515 24.7954 16.9455 24.7841 17.1305 24.7841V24.7812H17.5572V25.027V25.027Z" fill="white"/>
<path d="M21.1026 22.6937C20.9743 22.7304 20.855 22.7784 20.7475 22.8378C20.6401 22.8999 20.5416 22.9705 20.4551 23.0581C20.3686 23.1428 20.2999 23.2389 20.2462 23.3434H20.2313V22.7361H19.4405H19.4346V26.6765H20.2253V24.6992C20.2253 24.267 20.3268 23.9507 20.5327 23.7445C20.7386 23.5411 21.034 23.4394 21.4189 23.4394C21.4846 23.4394 21.5472 23.4451 21.6129 23.4535C21.6785 23.462 21.7412 23.4761 21.8069 23.4931L21.8427 22.6881C21.7382 22.6542 21.6218 22.6372 21.4935 22.6372C21.3593 22.64 21.2309 22.657 21.1026 22.6937Z" fill="white"/>
<path d="M26.0851 25.9591V23.9508C26.0851 23.7785 26.0523 23.6146 25.9866 23.4565C25.918 23.3011 25.8135 23.1599 25.6733 23.0384C25.533 22.917 25.354 22.8181 25.1332 22.7475C24.9154 22.6769 24.6528 22.6401 24.3484 22.6401C24.056 22.6401 23.7635 22.6882 23.4711 22.7842C23.1787 22.8802 22.922 23.0271 22.7012 23.2192L23.1727 23.6853C23.2413 23.6344 23.3159 23.5836 23.3905 23.5271C23.4651 23.4706 23.5487 23.4226 23.6442 23.383C23.7397 23.3407 23.8441 23.3068 23.9575 23.2785C24.0709 23.2503 24.2052 23.239 24.3574 23.239C24.5274 23.239 24.6737 23.2616 24.796 23.3096C24.9213 23.3576 25.0228 23.4226 25.1034 23.5017C25.1839 23.5836 25.2466 23.6711 25.2854 23.7728C25.3242 23.8745 25.348 23.9706 25.348 24.0722V24.2389H24.7691C24.4528 24.2389 24.1574 24.2643 23.8799 24.3095C23.6024 24.3547 23.3607 24.4338 23.1518 24.5411C22.9429 24.6485 22.7788 24.7897 22.6624 24.9592C22.5401 25.1315 22.4834 25.3433 22.4834 25.6004C22.4834 25.7953 22.5222 25.9619 22.5968 26.1116C22.6744 26.2585 22.7758 26.3828 22.9101 26.4817C23.0414 26.5805 23.1966 26.654 23.3696 26.7048C23.5457 26.7528 23.7277 26.7783 23.9217 26.7783C24.238 26.7783 24.5155 26.7246 24.7542 26.6201C24.9929 26.5127 25.2018 26.3348 25.3779 26.0806H25.3958C25.3958 26.2783 25.4047 26.4789 25.4226 26.6766H26.1239C26.109 26.5721 26.103 26.4619 26.097 26.3461C26.0881 26.2246 26.0851 26.0947 26.0851 25.9591ZM25.354 25.027C25.354 25.1597 25.3331 25.2953 25.2913 25.4309C25.2496 25.5665 25.1839 25.6908 25.0884 25.8009C24.9929 25.9139 24.8706 26.0015 24.7184 26.0721C24.5662 26.1399 24.3812 26.1766 24.1664 26.1766C23.8889 26.1766 23.674 26.1258 23.5129 26.0269C23.3517 25.928 23.2712 25.7642 23.2712 25.5382C23.2712 25.3829 23.3219 25.2558 23.4234 25.1569C23.5218 25.058 23.6561 24.9818 23.8172 24.9253C23.9784 24.8688 24.1574 24.8349 24.3544 24.8123C24.5483 24.7954 24.7423 24.7841 24.9273 24.7841V24.7812H25.354V25.027Z" fill="white"/>
<path d="M33.2074 23.1824C33.0911 23.0185 32.9299 22.8858 32.724 22.7869C32.5181 22.6881 32.2555 22.6372 31.9333 22.6372C31.6796 22.6372 31.4319 22.6993 31.1873 22.8208C30.9396 22.9423 30.7516 23.1259 30.6173 23.3688C30.483 23.123 30.31 22.9423 30.1011 22.8208C29.8922 22.6993 29.6296 22.6372 29.3193 22.6372C29.1343 22.6372 28.9612 22.6626 28.806 22.7163C28.6509 22.77 28.5136 22.8349 28.4032 22.9084C28.2898 22.9846 28.1943 23.0609 28.1227 23.1456C28.0511 23.2276 28.0033 23.2954 27.9884 23.3518H27.9705V22.7361H27.2364H27.2305V26.6765H28.0182V24.6342C28.0182 24.4111 28.0481 24.2218 28.1078 24.058C28.1674 23.8942 28.245 23.7586 28.3435 23.6541C28.442 23.5496 28.5584 23.4705 28.6896 23.4168C28.818 23.3631 28.9552 23.3377 29.0955 23.3377C29.2894 23.3377 29.4416 23.3688 29.555 23.4309C29.6714 23.4959 29.7579 23.5835 29.8176 23.6965C29.8803 23.8123 29.9191 23.945 29.9429 24.1004C29.9608 24.2557 29.9728 24.428 29.9728 24.6145V26.6736H30.7635V24.5241C30.7635 24.1766 30.8441 23.8914 31.0082 23.671C31.1723 23.4479 31.4439 23.3405 31.8258 23.3405C32.0198 23.3405 32.175 23.3716 32.2913 23.4338C32.4077 23.4959 32.5002 23.5806 32.5629 23.6852C32.6285 23.7897 32.6673 23.9111 32.6882 24.0495C32.7061 24.1879 32.718 24.3292 32.718 24.4817V26.6708H33.5088V24.38C33.5088 24.1597 33.4879 23.945 33.4432 23.736C33.4044 23.5326 33.3238 23.3462 33.2074 23.1824Z" fill="white"/>
<path d="M14.4581 22.1313C15.5264 22.1313 16.2724 21.3743 16.2724 20.3687C16.2754 19.3603 15.5384 18.5723 14.4611 18.5723H12.1784C10.9788 18.5723 10.2925 19.3829 10.2925 20.6117L10.3343 23.329V26.6706H11.125V24.6283L13.0527 26.6706H14.1747L12.0709 24.5295L14.0076 22.7443H12.9124L11.125 24.4447V23.329L11.1966 20.7868C11.1966 19.9535 11.5846 19.4451 12.1903 19.4451H12.8528C12.7006 19.705 12.626 20.0044 12.626 20.349C12.629 21.3433 13.3809 22.1313 14.4581 22.1313ZM14.4283 19.3632C14.9863 19.3632 15.3414 19.7982 15.3414 20.3744C15.3414 20.9393 14.9953 21.3433 14.485 21.3433C13.9449 21.3433 13.5629 20.8998 13.5629 20.3405C13.5629 19.7925 13.8793 19.3632 14.4283 19.3632Z" fill="white"/>
<path d="M18.0207 17.1094H17.1226V22.0554H18.0207V17.1094Z" fill="white"/>
<path d="M32.3963 19.0047C31.9606 18.7222 31.4414 18.5838 30.8416 18.5838H30.4447L31.5369 17.1206H30.4626L28.8692 19.3888H30.7401C31.331 19.3888 31.8024 19.5809 32.1396 19.9707C32.4321 20.3068 32.5753 20.7136 32.5753 21.1909H28.335H28.1321H26.7326H26.5476H25.1302H24.9422H23.5248H23.3398H22.0358H21.7374H20.6453V18.5838H19.7411V21.5073C19.7411 21.9197 19.6217 22.0525 19.386 22.092H18.6161H18.4729V22.6908L19.7829 22.6767C19.8664 22.6711 19.941 22.6626 20.0156 22.6513C20.32 22.592 20.5289 22.4338 20.5945 22.0609H21.7434H22.0418H23.3458H23.5308H24.9482H25.1332H26.5506H26.7356H28.1351H28.338H33.5481V21.5243C33.5481 20.3209 33.1661 19.4848 32.3963 19.0047Z" fill="white"/>
<defs>
<linearGradient id="paint0_linear_3315_36163" x1="22" y1="0" x2="22" y2="44" gradientUnits="userSpaceOnUse">
<stop stop-color="#0C63AA"/>
<stop offset="1" stop-color="#4086F4"/>
</linearGradient>
</defs>
</svg>
