<svg width="44" height="44" viewBox="0 0 44 44" fill="none" xmlns="http://www.w3.org/2000/svg">
<rect width="44" height="44" rx="12" fill="#E1EBF5"/>
<g clip-path="url(#clip0_3589_21504)">
<path d="M22.0001 32C23.1001 32 24.0001 31.1 24.0001 30H20.0001C20.0001 31.1 20.8901 32 22.0001 32ZM28.0001 26V21C28.0001 17.93 26.3601 15.36 23.5001 14.68V14C23.5001 13.17 22.8301 12.5 22.0001 12.5C21.1701 12.5 20.5001 13.17 20.5001 14V14.68C17.6301 15.36 16.0001 17.92 16.0001 21V26L14.7101 27.29C14.0801 27.92 14.5201 29 15.4101 29H28.5801C29.4701 29 29.9201 27.92 29.2901 27.29L28.0001 26Z" fill="#0C63AA"/>
</g>
<defs>
<clipPath id="clip0_3589_21504">
<rect width="24" height="24" fill="white" transform="translate(10 10)"/>
</clipPath>
</defs>
</svg>
