<svg width="44" height="44" viewBox="0 0 44 44" fill="none"
  xmlns="http://www.w3.org/2000/svg">
  <rect width="44" height="44" rx="12" fill="#E1EBF5"/>
  <path d="M25.5006 24.0006H24.7106L24.4306 23.7306C25.6306 22.3306 26.2506 20.4206 25.9106 18.3906C25.4406 15.6106 23.1206 13.3906 20.3206 13.0506C16.0906 12.5306 12.5306 16.0906 13.0506 20.3206C13.3906 23.1206 15.6106 25.4406 18.3906 25.9106C20.4206 26.2506 22.3306 25.6306 23.7306 24.4306L24.0006 24.7106V25.5006L28.2506 29.7506C28.6606 30.1606 29.3306 30.1606 29.7406 29.7506C30.1506 29.3406 30.1506 28.6706 29.7406 28.2606L25.5006 24.0006ZM19.5006 24.0006C17.0106 24.0006 15.0006 21.9906 15.0006 19.5006C15.0006 17.0106 17.0106 15.0006 19.5006 15.0006C21.9906 15.0006 24.0006 17.0106 24.0006 19.5006C24.0006 21.9906 21.9906 24.0006 19.5006 24.0006Z" fill="#0C63AA"/>
</svg>
